<svg xmlns="http://www.w3.org/2000/svg" xmlns:xlink="http://www.w3.org/1999/xlink" width="500" zoomAndPan="magnify" viewBox="0 0 375 374.999991" height="500" preserveAspectRatio="xMidYMid meet" version="1.0"><path fill="#ed254e" d="M 299.542969 96.15625 C 270.238281 66.085938 278.628906 47.238281 258.574219 33.316406 C 227.71875 11.894531 170.132812 30.324219 136.15625 59.792969 C 94.546875 95.882812 73.078125 161.777344 97.535156 221.394531 C 123.578125 284.878906 192.105469 317.835938 253.253906 307.902344 C 307.859375 299.035156 361.539062 255.15625 366.914062 202.535156 C 367.5 196.832031 370.074219 166 352.023438 139.417969 C 337.105469 117.445312 322.777344 119.996094 299.542969 96.15625 " fill-opacity="1" fill-rule="nonzero"/><path fill="#fcd146" d="M 292.621094 293.984375 C 298.105469 308.464844 266.980469 333.679688 223.101562 350.304688 C 179.222656 366.929688 137.058594 366 131.574219 351.519531 C 126.085938 337.039062 159.355469 314.488281 203.234375 297.867188 C 247.113281 281.242188 287.132812 279.503906 292.621094 293.984375 " fill-opacity="1" fill-rule="nonzero"/><path fill="#f6f4ff" d="M 10.167969 104.664062 C 4.925781 95.601562 7.585938 84.03125 16.230469 78.125 C 33.011719 66.652344 61.210938 48.859375 90.296875 37.027344 C 136.25 18.335938 167.289062 0.0976562 188.171875 27.054688 C 209.050781 54.015625 221.539062 153.84375 245.871094 195.328125 C 270.203125 236.816406 294.144531 299.117188 294.144531 299.117188 L 287.300781 308.765625 C 287.300781 308.765625 293.941406 294.226562 279.125 293.082031 C 264.304688 291.941406 217.554688 286.226562 166.941406 317.085938 C 116.335938 347.941406 133.941406 354.460938 148.808594 358.433594 C 163.679688 362.410156 235.445312 351.542969 264.660156 322.128906 C 264.660156 322.128906 218.257812 371.265625 155.128906 363.878906 C 155.128906 363.878906 135.425781 363.078125 126.867188 350.90625 C 119.003906 339.730469 49.054688 171.9375 10.167969 104.664062 " fill-opacity="1" fill-rule="nonzero"/><path fill="#011936" d="M 10.511719 104.46875 C 16.855469 115.476562 22.753906 126.726562 28.503906 138.050781 C 34.242188 149.375 39.808594 160.789062 45.289062 172.242188 C 56.238281 195.152344 66.839844 218.230469 77.316406 241.355469 C 87.796875 264.484375 98.117188 287.679688 108.519531 310.839844 C 111.121094 316.625 113.730469 322.410156 116.371094 328.179688 C 119.015625 333.949219 121.664062 339.714844 124.476562 345.386719 C 125.1875 346.800781 125.90625 348.214844 126.6875 349.5625 C 126.878906 349.902344 127.085938 350.21875 127.292969 350.535156 C 127.515625 350.847656 127.742188 351.164062 127.984375 351.464844 C 128.460938 352.070312 128.972656 352.652344 129.511719 353.210938 C 131.675781 355.429688 134.285156 357.203125 137.074219 358.605469 C 139.867188 360.007812 142.84375 361.042969 145.886719 361.816406 C 148.921875 362.578125 152.058594 363.105469 155.152344 363.300781 L 155.167969 363.300781 L 155.199219 363.304688 C 165.171875 364.445312 175.296875 364.265625 185.222656 362.730469 C 195.148438 361.222656 204.871094 358.4375 214.175781 354.652344 C 223.484375 350.867188 232.382812 346.085938 240.773438 340.554688 C 244.972656 337.789062 249.042969 334.832031 252.96875 331.691406 C 256.878906 328.546875 260.703125 325.242188 264.1875 321.679688 L 264.191406 321.679688 L 265.125 322.585938 C 260.210938 327.503906 254.546875 331.574219 248.613281 335.101562 C 242.664062 338.609375 236.421875 341.59375 230.039062 344.199219 C 217.261719 349.390625 203.960938 353.183594 190.472656 355.941406 C 183.722656 357.304688 176.914062 358.40625 170.058594 359.128906 C 166.628906 359.488281 163.1875 359.746094 159.734375 359.84375 C 158.003906 359.886719 156.273438 359.886719 154.535156 359.8125 C 152.800781 359.738281 151.058594 359.585938 149.3125 359.222656 L 148.65625 359.066406 L 148.03125 358.898438 L 146.785156 358.554688 C 145.953125 358.320312 145.125 358.074219 144.296875 357.8125 C 142.644531 357.289062 141 356.695312 139.40625 355.953125 C 137.816406 355.203125 136.253906 354.300781 134.933594 353.015625 C 134.285156 352.367188 133.710938 351.613281 133.304688 350.753906 C 132.894531 349.894531 132.691406 348.9375 132.675781 347.992188 C 132.65625 346.082031 133.371094 344.335938 134.234375 342.792969 C 135.105469 341.234375 136.195312 339.847656 137.339844 338.527344 C 139.652344 335.902344 142.253906 333.601562 144.921875 331.410156 C 147.605469 329.230469 150.382812 327.179688 153.210938 325.210938 C 156.039062 323.242188 158.914062 321.347656 161.820312 319.503906 C 167.621094 315.808594 173.59375 312.328125 179.765625 309.261719 C 185.9375 306.183594 192.289062 303.472656 198.78125 301.15625 C 205.277344 298.832031 211.921875 296.941406 218.648438 295.4375 C 232.101562 292.398438 245.929688 291.105469 259.707031 291.300781 C 263.152344 291.351562 266.597656 291.496094 270.035156 291.722656 C 271.75 291.839844 273.46875 291.964844 275.179688 292.105469 L 277.75 292.320312 L 279.027344 292.421875 C 279.460938 292.460938 279.910156 292.496094 280.34375 292.558594 C 282.101562 292.792969 283.882812 293.265625 285.460938 294.238281 C 287.042969 295.183594 288.320312 296.742188 288.898438 298.507812 C 289.503906 300.273438 289.53125 302.132812 289.308594 303.898438 C 289.191406 304.78125 289.007812 305.652344 288.773438 306.507812 C 288.53125 307.367188 288.257812 308.1875 287.890625 309.035156 L 286.769531 308.390625 L 293.617188 298.742188 L 293.539062 299.351562 C 289.664062 289.378906 285.582031 279.464844 281.386719 269.609375 C 277.183594 259.757812 272.84375 249.964844 268.324219 240.253906 C 263.808594 230.546875 259.097656 220.921875 254.121094 211.445312 C 251.632812 206.707031 249.054688 202.015625 246.378906 197.382812 C 243.632812 192.777344 241.183594 187.941406 239.042969 183.019531 C 234.738281 173.15625 231.300781 162.96875 228.128906 152.722656 C 224.980469 142.464844 222.140625 132.121094 219.382812 121.761719 L 211.207031 90.664062 C 208.441406 80.316406 205.605469 69.984375 202.332031 59.792969 C 200.691406 54.699219 198.929688 49.648438 196.945312 44.6875 C 194.9375 39.742188 192.726562 34.859375 189.886719 30.367188 C 188.480469 28.121094 186.820312 26.046875 185.015625 24.109375 C 184.101562 23.152344 183.160156 22.21875 182.148438 21.371094 C 181.144531 20.507812 180.097656 19.703125 178.992188 18.980469 C 177.894531 18.25 176.753906 17.582031 175.5625 17.011719 C 174.378906 16.441406 173.160156 15.929688 171.90625 15.527344 C 170.652344 15.117188 169.375 14.78125 168.078125 14.53125 C 166.78125 14.285156 165.46875 14.113281 164.148438 14.003906 C 158.859375 13.605469 153.527344 14.316406 148.335938 15.464844 C 143.132812 16.628906 138.035156 18.265625 133.003906 20.0625 C 122.941406 23.699219 113.109375 27.980469 103.226562 32.125 L 95.808594 35.230469 C 93.335938 36.261719 90.839844 37.25 88.378906 38.296875 C 83.429688 40.324219 78.570312 42.578125 73.738281 44.875 C 68.921875 47.207031 64.152344 49.640625 59.4375 52.175781 C 54.730469 54.726562 50.046875 57.320312 45.441406 60.046875 C 36.203125 65.464844 27.152344 71.199219 18.277344 77.195312 C 17.171875 77.957031 16.035156 78.664062 15.03125 79.503906 C 14.019531 80.335938 13.082031 81.273438 12.257812 82.296875 C 10.605469 84.339844 9.375 86.71875 8.644531 89.242188 C 7.910156 91.765625 7.710938 94.441406 8.027344 97.046875 C 8.34375 99.652344 9.195312 102.195312 10.511719 104.46875 Z M 9.824219 104.863281 C 8.457031 102.496094 7.570312 99.851562 7.246094 97.140625 C 6.917969 94.429688 7.132812 91.648438 7.898438 89.027344 C 8.65625 86.402344 9.941406 83.933594 11.660156 81.808594 C 12.519531 80.746094 13.492188 79.777344 14.546875 78.910156 C 15.070312 78.480469 15.628906 78.074219 16.183594 77.691406 L 17.847656 76.5625 C 26.726562 70.546875 35.785156 64.792969 45.035156 59.359375 C 49.648438 56.621094 54.335938 54.015625 59.046875 51.453125 C 63.769531 48.90625 68.546875 46.464844 73.375 44.121094 C 78.21875 41.8125 83.085938 39.546875 88.050781 37.507812 C 90.523438 36.453125 93.007812 35.464844 95.476562 34.429688 L 102.886719 31.320312 C 112.765625 27.164062 122.59375 22.871094 132.695312 19.207031 C 137.746094 17.394531 142.875 15.746094 148.132812 14.558594 C 153.382812 13.390625 158.796875 12.660156 164.21875 13.0625 C 165.570312 13.171875 166.917969 13.347656 168.253906 13.597656 C 169.589844 13.851562 170.910156 14.203125 172.203125 14.621094 C 173.5 15.035156 174.757812 15.5625 175.984375 16.152344 C 177.210938 16.738281 178.394531 17.425781 179.523438 18.179688 C 180.664062 18.921875 181.746094 19.75 182.777344 20.632812 C 183.816406 21.507812 184.785156 22.460938 185.722656 23.441406 C 187.570312 25.417969 189.273438 27.546875 190.714844 29.84375 C 193.613281 34.417969 195.84375 39.335938 197.875 44.3125 C 199.875 49.300781 201.648438 54.375 203.296875 59.480469 C 206.59375 69.699219 209.445312 80.042969 212.222656 90.394531 L 220.433594 121.484375 C 223.199219 131.832031 226.046875 142.164062 229.203125 152.394531 C 232.378906 162.609375 235.816406 172.765625 240.101562 182.550781 C 242.246094 187.453125 244.652344 192.195312 247.398438 196.796875 C 250.085938 201.441406 252.675781 206.144531 255.179688 210.886719 C 260.179688 220.382812 264.902344 230.015625 269.4375 239.734375 C 273.976562 249.453125 278.332031 259.253906 282.550781 269.113281 C 286.761719 278.976562 290.855469 288.886719 294.753906 298.886719 C 294.835938 299.09375 294.800781 299.320312 294.679688 299.488281 L 294.679688 299.496094 L 287.828125 309.144531 C 287.621094 309.433594 287.21875 309.503906 286.925781 309.296875 C 286.671875 309.113281 286.585938 308.785156 286.703125 308.511719 L 286.710938 308.496094 C 287.34375 307.003906 287.800781 305.355469 288.015625 303.730469 C 288.226562 302.101562 288.183594 300.429688 287.667969 298.929688 C 287.171875 297.425781 286.140625 296.167969 284.777344 295.34375 C 283.425781 294.511719 281.8125 294.066406 280.171875 293.851562 C 279.757812 293.789062 279.351562 293.757812 278.925781 293.71875 L 277.640625 293.613281 L 275.078125 293.402344 C 273.367188 293.261719 271.65625 293.136719 269.949219 293.019531 C 266.53125 292.796875 263.109375 292.652344 259.6875 292.601562 C 246.007812 292.40625 232.28125 293.691406 218.929688 296.707031 C 212.253906 298.199219 205.664062 300.078125 199.21875 302.378906 C 192.777344 304.679688 186.46875 307.371094 180.347656 310.425781 C 174.21875 313.472656 168.300781 316.914062 162.519531 320.601562 C 159.625 322.4375 156.765625 324.320312 153.957031 326.277344 C 151.148438 328.230469 148.394531 330.265625 145.746094 332.417969 C 143.113281 334.578125 140.550781 336.847656 138.320312 339.386719 C 137.214844 340.65625 136.175781 341.988281 135.367188 343.429688 C 134.5625 344.859375 133.953125 346.421875 133.976562 347.976562 C 133.992188 348.75 134.148438 349.507812 134.480469 350.199219 C 134.8125 350.894531 135.285156 351.527344 135.851562 352.09375 C 136.996094 353.214844 138.449219 354.0625 139.957031 354.773438 C 141.472656 355.484375 143.070312 356.058594 144.6875 356.574219 C 145.5 356.828125 146.316406 357.070312 147.136719 357.300781 L 148.371094 357.644531 L 148.992188 357.808594 L 149.589844 357.949219 C 151.207031 358.289062 152.898438 358.441406 154.59375 358.511719 C 156.289062 358.589844 157.992188 358.585938 159.695312 358.542969 C 163.109375 358.445312 166.519531 358.191406 169.921875 357.832031 C 176.730469 357.117188 183.5 356.023438 190.210938 354.664062 C 203.632812 351.921875 216.863281 348.148438 229.550781 342.996094 C 235.882812 340.410156 242.070312 337.449219 247.949219 333.980469 C 253.8125 330.496094 259.394531 326.480469 264.199219 321.667969 L 264.203125 321.664062 C 264.457031 321.410156 264.871094 321.410156 265.125 321.664062 C 265.375 321.914062 265.378906 322.316406 265.132812 322.574219 C 261.554688 326.222656 257.726562 329.519531 253.769531 332.695312 C 249.808594 335.855469 245.703125 338.828125 241.472656 341.609375 C 233.007812 347.175781 224.035156 351.980469 214.636719 355.789062 C 205.25 359.597656 195.429688 362.398438 185.398438 363.910156 C 175.375 365.445312 165.140625 365.621094 155.0625 364.453125 L 155.105469 364.457031 C 151.867188 364.25 148.71875 363.707031 145.605469 362.925781 C 142.496094 362.132812 139.445312 361.066406 136.5625 359.617188 C 133.6875 358.171875 130.976562 356.324219 128.707031 353.992188 C 128.140625 353.40625 127.605469 352.796875 127.101562 352.15625 C 126.847656 351.835938 126.609375 351.507812 126.375 351.175781 C 126.144531 350.828125 125.917969 350.476562 125.722656 350.125 C 124.917969 348.726562 124.199219 347.308594 123.484375 345.882812 C 120.664062 340.179688 118.023438 334.40625 115.382812 328.632812 C 112.746094 322.855469 110.144531 317.066406 107.546875 311.273438 C 97.171875 288.101562 86.878906 264.894531 76.429688 241.757812 C 65.980469 218.621094 55.410156 195.539062 44.492188 172.625 C 39.027344 161.171875 33.476562 149.757812 27.753906 138.429688 C 22.023438 127.109375 16.144531 115.859375 9.824219 104.863281 " fill-opacity="1" fill-rule="nonzero"/><path fill="#ed254e" d="M 202.121094 126.320312 C 152.375 137.398438 101.371094 164.875 74.34375 180.980469 L 140.707031 312.734375 C 140.707031 312.734375 200.488281 264.902344 254.414062 270.585938 L 202.121094 126.320312 " fill-opacity="1" fill-rule="nonzero"/><path fill="#fcd146" d="M 106.949219 138.292969 C 138.730469 122.65625 168.042969 111.707031 194.585938 105.53125 L 172.371094 44.253906 C 172.371094 44.253906 103.140625 54.289062 32.824219 98.554688 L 64.441406 161.324219 C 75.484375 154.777344 90.097656 146.582031 106.949219 138.292969 " fill-opacity="1" fill-rule="nonzero"/><path fill="#011936" d="M 223.390625 303.007812 C 217.617188 304.640625 211.320312 306.890625 204.503906 309.875 C 169.53125 325.195312 160.199219 340.214844 162.457031 346.574219 C 162.648438 347.101562 163.425781 347.511719 164.660156 347.734375 C 175.039062 349.613281 212.585938 338.335938 230.914062 316.878906 Z M 167.273438 349.234375 C 166.199219 349.234375 165.246094 349.164062 164.425781 349.015625 C 162.667969 348.695312 161.589844 348.019531 161.234375 347.011719 C 159.789062 342.953125 162.328125 337.148438 168.1875 331.085938 C 175.5625 323.457031 187.941406 315.710938 203.984375 308.683594 C 220.101562 301.621094 234.410156 298.082031 246.5 298.15625 C 259.082031 298.234375 265.121094 302.289062 267.132812 304.03125 C 274.164062 310.113281 269.386719 317.738281 269.335938 317.816406 C 269.140625 318.117188 268.738281 318.203125 268.4375 318.011719 C 268.132812 317.816406 268.046875 317.414062 268.242188 317.113281 C 268.421875 316.832031 272.445312 310.347656 266.28125 305.015625 C 260.164062 299.722656 246.15625 296.851562 224.679688 302.652344 L 232.269531 316.648438 C 232.398438 316.882812 232.367188 317.171875 232.199219 317.378906 C 221.214844 330.441406 204.441406 338.546875 195.425781 342.214844 C 184.742188 346.558594 173.820312 349.234375 167.273438 349.234375 " fill-opacity="1" fill-rule="nonzero"/><path fill="#011936" d="M 277.8125 206.722656 L 300.71875 223.5 C 302.394531 224.730469 304.550781 224.644531 305.527344 223.304688 L 307.136719 221.105469 C 308.117188 219.769531 307.550781 217.6875 305.875 216.457031 L 282.96875 199.683594 L 277.8125 206.722656 " fill-opacity="1" fill-rule="nonzero"/><path fill="#011936" d="M 331.878906 185.410156 C 333.058594 190.367188 331.558594 194.96875 328.527344 195.691406 C 325.5 196.410156 322.085938 192.980469 320.90625 188.023438 C 319.722656 183.0625 321.222656 178.460938 324.253906 177.738281 C 327.285156 177.015625 330.699219 180.453125 331.878906 185.410156 " fill-opacity="1" fill-rule="nonzero"/><path fill="#011936" d="M 271.191406 195.375 L 273.265625 204.105469 C 273.585938 205.449219 275.5625 206.128906 277.683594 205.625 L 274.445312 192.027344 C 272.328125 192.53125 270.867188 194.03125 271.191406 195.375 " fill-opacity="1" fill-rule="nonzero"/><path fill="#f6f4ff" d="M 318.417969 166.78125 L 315.019531 167.589844 L 274.089844 192.371094 L 277.324219 205.96875 L 325.035156 209.652344 L 328.429688 208.84375 L 318.417969 166.78125 " fill-opacity="1" fill-rule="nonzero"/><path fill="#011936" d="M 277.847656 205.355469 L 324.984375 208.992188 L 327.644531 208.359375 L 317.933594 167.5625 L 315.269531 168.199219 L 274.832031 192.679688 Z M 325.03125 210.300781 C 325.019531 210.300781 325 210.300781 324.984375 210.300781 L 277.273438 206.617188 C 276.996094 206.59375 276.757812 206.394531 276.691406 206.117188 L 273.457031 192.519531 C 273.390625 192.246094 273.507812 191.960938 273.75 191.8125 L 314.683594 167.03125 C 314.746094 166.996094 314.804688 166.972656 314.871094 166.957031 L 318.265625 166.144531 C 318.433594 166.105469 318.613281 166.132812 318.757812 166.226562 C 318.90625 166.316406 319.011719 166.460938 319.046875 166.628906 L 329.0625 208.691406 C 329.101562 208.859375 329.074219 209.035156 328.984375 209.183594 C 328.894531 209.328125 328.746094 209.4375 328.582031 209.476562 L 325.183594 210.285156 C 325.136719 210.296875 325.085938 210.300781 325.03125 210.300781 " fill-opacity="1" fill-rule="nonzero"/><path fill="#f9dc5c" d="M 329.570312 210.59375 L 326.738281 211.265625 C 325.507812 211.558594 324.3125 210.707031 324.179688 209.457031 C 322.65625 195.453125 319.394531 181.679688 314.335938 168.144531 C 313.898438 166.96875 314.585938 165.671875 315.808594 165.378906 L 318.640625 164.707031 C 319.652344 164.46875 320.691406 165.007812 321.070312 165.980469 C 326.441406 179.828125 329.808594 193.957031 331.164062 208.367188 C 331.261719 209.40625 330.582031 210.351562 329.570312 210.59375 " fill-opacity="1" fill-rule="nonzero"/><path fill="#f9dc5c" d="M 239.230469 361.003906 C 239.230469 361.003906 238.195312 368.828125 239.230469 370.171875 C 240.179688 371.410156 267.167969 372.253906 272.695312 369.089844 C 278.222656 365.925781 261.34375 359.886719 261.34375 359.886719 L 239.230469 361.003906 " fill-opacity="1" fill-rule="nonzero"/><path fill="#011936" d="M 253.015625 369.214844 C 244.941406 369.214844 240.257812 367.6875 239.953125 367.585938 C 239.609375 367.472656 239.429688 367.101562 239.542969 366.761719 C 239.65625 366.421875 240.027344 366.238281 240.367188 366.351562 C 240.484375 366.390625 252.175781 370.179688 270.527344 365.699219 C 270.878906 365.613281 271.230469 365.828125 271.316406 366.175781 C 271.398438 366.523438 271.1875 366.875 270.835938 366.964844 C 263.835938 368.671875 257.824219 369.214844 253.015625 369.214844 " fill-opacity="1" fill-rule="nonzero"/><path fill="#011936" d="M 256.289062 364.96875 C 256.117188 364.96875 255.945312 364.898438 255.816406 364.765625 C 255.570312 364.503906 255.582031 364.09375 255.839844 363.84375 L 259.710938 360.175781 C 259.96875 359.933594 260.382812 359.941406 260.628906 360.203125 C 260.875 360.464844 260.867188 360.875 260.605469 361.121094 L 256.738281 364.789062 C 256.613281 364.910156 256.449219 364.96875 256.289062 364.96875 " fill-opacity="1" fill-rule="nonzero"/><path fill="#011936" d="M 262.632812 364.96875 C 262.496094 364.96875 262.355469 364.925781 262.238281 364.835938 C 261.953125 364.617188 261.898438 364.210938 262.113281 363.925781 L 263.90625 361.578125 C 264.121094 361.289062 264.53125 361.238281 264.816406 361.453125 C 265.101562 361.671875 265.15625 362.078125 264.941406 362.363281 L 263.148438 364.710938 C 263.019531 364.878906 262.828125 364.96875 262.632812 364.96875 " fill-opacity="1" fill-rule="nonzero"/><path fill="#f9dc5c" d="M 187.035156 362.730469 C 187.035156 362.730469 183.570312 366.902344 184.183594 370.894531 C 184.800781 374.886719 206.316406 373.191406 207.160156 371.867188 C 208.378906 369.964844 207.074219 364.585938 204.097656 361.628906 C 201.121094 358.675781 187.035156 362.730469 187.035156 362.730469 " fill-opacity="1" fill-rule="nonzero"/><path fill="#011936" d="M 196.828125 371.140625 C 190.832031 371.140625 185.761719 369.945312 185.445312 369.871094 C 185.097656 369.789062 184.882812 369.433594 184.964844 369.085938 C 185.050781 368.734375 185.402344 368.519531 185.75 368.605469 C 185.863281 368.632812 197.3125 371.324219 205.976562 368.617188 C 206.320312 368.511719 206.683594 368.699219 206.792969 369.042969 C 206.898438 369.386719 206.707031 369.75 206.367188 369.859375 C 203.289062 370.820312 199.933594 371.140625 196.828125 371.140625 " fill-opacity="1" fill-rule="nonzero"/><path fill="#f6f4ff" d="M 190.828125 210.511719 C 189.132812 225.558594 187.910156 238.191406 187.066406 247.480469 C 183.503906 286.769531 181.722656 306.414062 182.539062 315.757812 C 183.535156 327.195312 185.597656 334.609375 182.183594 343.488281 C 181.785156 344.519531 179.578125 350.089844 179.496094 357.503906 C 179.460938 361.328125 179.46875 364.671875 181.539062 366.15625 C 184.433594 368.21875 188.449219 364.59375 195.324219 363.710938 C 201.394531 362.929688 206.722656 364.664062 210.507812 366.445312 C 212.175781 349.960938 213.769531 333.460938 215.277344 316.953125 C 217.3125 294.703125 219.199219 272.4375 220.945312 250.167969 C 224.160156 260.425781 225.972656 268.925781 227.015625 274.597656 C 233.128906 307.84375 236.5 326.1875 232.570312 346.171875 C 231.828125 349.933594 229.980469 358.074219 234.058594 361.675781 C 236.097656 363.472656 238.964844 363.570312 246.765625 362.65625 C 252.359375 361.996094 259.746094 360.902344 268.425781 358.984375 C 265.371094 327.703125 260.25 293.445312 252.035156 256.9375 C 247.917969 238.644531 243.359375 221.269531 238.53125 204.847656 C 222.628906 206.738281 206.730469 208.625 190.828125 210.511719 " fill-opacity="1" fill-rule="nonzero"/><path fill="#011936" d="M 191.417969 211.097656 C 190.058594 223.21875 188.8125 235.472656 187.71875 247.539062 C 184.160156 286.746094 182.375 306.414062 183.1875 315.703125 C 183.398438 318.128906 183.65625 320.347656 183.90625 322.496094 C 184.816406 330.367188 185.535156 336.585938 182.789062 343.722656 L 182.761719 343.792969 C 181.125 348.035156 180.199219 352.90625 180.152344 357.507812 C 180.113281 361.007812 180.078125 364.3125 181.917969 365.625 C 183.335938 366.636719 185.25 365.953125 187.898438 365.011719 C 189.867188 364.3125 192.316406 363.441406 195.242188 363.0625 C 199.980469 362.453125 204.925781 363.265625 209.953125 365.476562 C 211.582031 349.347656 213.15625 333.007812 214.628906 316.894531 C 216.65625 294.738281 218.5625 272.269531 220.292969 250.117188 C 220.316406 249.804688 220.558594 249.554688 220.867188 249.519531 C 221.175781 249.484375 221.46875 249.671875 221.5625 249.972656 C 224.109375 258.078125 226.15625 266.328125 227.65625 274.480469 C 233.785156 307.824219 237.164062 326.191406 233.210938 346.296875 L 233.105469 346.828125 C 232.324219 350.730469 230.875 357.992188 234.492188 361.1875 C 236.28125 362.769531 238.789062 362.9375 246.691406 362.007812 C 253.664062 361.1875 260.734375 360 267.722656 358.472656 C 264.378906 324.453125 258.886719 290.34375 251.402344 257.082031 C 247.523438 239.851562 243.039062 222.519531 238.0625 205.558594 Z M 183.578125 367.433594 C 182.714844 367.433594 181.914062 367.222656 181.164062 366.683594 C 178.769531 364.976562 178.808594 361.34375 178.847656 357.492188 C 178.898438 352.742188 179.859375 347.710938 181.546875 343.328125 L 181.574219 343.253906 C 184.207031 336.417969 183.5 330.339844 182.613281 322.644531 C 182.363281 320.492188 182.105469 318.257812 181.890625 315.8125 C 181.070312 306.414062 182.859375 286.703125 186.417969 247.4375 C 187.53125 235.175781 188.796875 222.734375 190.183594 210.441406 C 190.214844 210.140625 190.453125 209.902344 190.753906 209.867188 L 238.457031 204.199219 C 238.777344 204.167969 239.066406 204.359375 239.15625 204.664062 C 244.199219 221.820312 248.75 239.359375 252.671875 256.792969 C 260.210938 290.296875 265.726562 324.65625 269.074219 358.921875 C 269.105469 359.25 268.890625 359.550781 268.566406 359.621094 C 261.355469 361.214844 254.046875 362.453125 246.84375 363.300781 C 239.078125 364.210938 235.914062 364.179688 233.632812 362.164062 C 229.453125 358.472656 230.996094 350.730469 231.828125 346.574219 L 231.929688 346.046875 C 235.839844 326.183594 232.480469 307.902344 226.375 274.714844 C 225.089844 267.710938 223.390625 260.636719 221.320312 253.640625 C 219.664062 274.691406 217.847656 295.992188 215.925781 317.011719 C 214.421875 333.433594 212.820312 350.085938 211.152344 366.511719 C 211.132812 366.722656 211.011719 366.910156 210.828125 367.011719 C 210.644531 367.117188 210.421875 367.125 210.230469 367.035156 C 205.148438 364.644531 200.160156 363.742188 195.40625 364.355469 C 192.621094 364.710938 190.34375 365.523438 188.332031 366.238281 C 186.539062 366.875 184.972656 367.433594 183.578125 367.433594 " fill-opacity="1" fill-rule="nonzero"/><path fill="#011936" d="M 220.878906 251.636719 C 220.519531 251.636719 220.226562 251.347656 220.226562 250.988281 C 220.226562 250.535156 220.597656 238.503906 220.613281 237.996094 C 220.625 237.726562 220.796875 237.488281 221.054688 237.398438 L 227.519531 235.164062 C 227.859375 235.042969 228.226562 235.226562 228.347656 235.566406 C 228.460938 235.90625 228.28125 236.273438 227.941406 236.394531 L 221.902344 238.484375 C 221.765625 242.910156 221.527344 250.65625 221.527344 250.988281 C 221.527344 251.347656 221.234375 251.636719 220.878906 251.636719 " fill-opacity="1" fill-rule="nonzero"/><path fill="#f6f4ff" d="M 273.808594 138.355469 L 266.269531 152.699219 C 266.269531 152.699219 252.210938 160.09375 263.828125 184.449219 C 263.828125 184.449219 249.675781 188.230469 248.417969 186.441406 C 247.160156 184.652344 242.433594 143.378906 273.808594 138.355469 " fill-opacity="1" fill-rule="nonzero"/><path fill="#011936" d="M 272.613281 139.230469 C 263.445312 141.058594 256.703125 146.320312 252.5625 154.894531 C 246.1875 168.101562 248.300781 184.910156 248.957031 186.082031 C 249.742188 186.820312 256.65625 185.640625 262.90625 184.015625 C 257.171875 171.628906 258.191406 163.691406 260.09375 159.1875 C 261.976562 154.726562 265 152.695312 265.785156 152.230469 Z M 250.390625 187.570312 C 248.746094 187.570312 248.167969 187.21875 247.882812 186.816406 C 247.023438 185.59375 244.929688 169.519531 250.601562 156.085938 C 255.007812 145.644531 262.78125 139.460938 273.703125 137.714844 C 273.949219 137.675781 274.191406 137.777344 274.335938 137.976562 C 274.480469 138.179688 274.496094 138.441406 274.382812 138.660156 L 266.84375 153 C 266.785156 153.117188 266.691406 153.210938 266.570312 153.273438 C 266.542969 153.292969 263.191406 155.117188 261.257812 159.777344 C 258.675781 165.992188 259.769531 174.429688 264.414062 184.167969 C 264.496094 184.34375 264.496094 184.542969 264.417969 184.722656 C 264.335938 184.898438 264.179688 185.027344 263.996094 185.074219 C 263.960938 185.085938 260.394531 186.035156 256.71875 186.753906 C 253.675781 187.351562 251.691406 187.570312 250.390625 187.570312 " fill-opacity="1" fill-rule="nonzero"/><path fill="#011936" d="M 249.9375 215.433594 C 246.28125 194.636719 242.632812 173.839844 238.980469 153.042969 C 233.664062 150.847656 225.246094 148.109375 214.605469 147.679688 C 202.578125 147.191406 193 149.863281 187.324219 151.925781 C 185.3125 153.992188 181.625 157.828125 179.492188 163.101562 C 177.667969 167.613281 176.214844 171.214844 176.09375 173.910156 C 180.253906 175.519531 186.050781 177.339844 190.210938 178.945312 C 185.996094 191.601562 181.78125 204.257812 177.566406 216.914062 C 179.632812 216.355469 182.867188 215.640625 186.855469 215.511719 C 196.433594 215.195312 199.566406 218.578125 207.402344 219.082031 C 216.144531 219.644531 217.320312 215.753906 228.503906 214.171875 C 233.949219 213.402344 241.148438 213.265625 249.9375 215.433594 " fill-opacity="1" fill-rule="nonzero"/><path fill="#f6f4ff" d="M 244.050781 137.246094 C 244.503906 136.777344 266.351562 153.457031 266.351562 153.457031 C 266.351562 153.457031 249.480469 176.988281 249.265625 193.511719 C 249.265625 193.511719 233.550781 190.804688 229.617188 184.878906 C 229.617188 184.878906 225.519531 156.589844 244.050781 137.246094 " fill-opacity="1" fill-rule="nonzero"/><path fill="#011936" d="M 244.054688 137.246094 L 244.058594 137.246094 Z M 230.242188 184.636719 C 233.621094 189.472656 245.539062 192.113281 248.640625 192.726562 C 249.285156 177.429688 262.972656 157.164062 265.460938 153.59375 C 257.972656 147.882812 246.425781 139.242188 244.230469 138.003906 C 227.128906 156.183594 229.96875 182.445312 230.242188 184.636719 Z M 249.269531 194.160156 C 249.234375 194.160156 249.195312 194.15625 249.160156 194.148438 C 248.503906 194.039062 233.117188 191.324219 229.078125 185.234375 C 229.023438 185.15625 228.988281 185.0625 228.976562 184.96875 C 228.933594 184.683594 225.046875 156.144531 243.582031 136.796875 C 244.101562 136.25 244.257812 136.082031 255.761719 144.652344 C 261.21875 148.71875 266.691406 152.898438 266.75 152.9375 C 267.027344 153.152344 267.085938 153.550781 266.882812 153.835938 C 266.714844 154.070312 250.128906 177.394531 249.917969 193.515625 C 249.914062 193.707031 249.832031 193.886719 249.683594 194.011719 C 249.566406 194.109375 249.417969 194.160156 249.269531 194.160156 " fill-opacity="1" fill-rule="nonzero"/><path fill="#f6f4ff" d="M 240.703125 167.09375 C 238.683594 165.578125 232.082031 161.167969 229.746094 162.542969 C 228.191406 163.457031 226.660156 164.871094 225.417969 168.878906 L 190.210938 178.945312 L 177.730469 174.121094 C 177.730469 174.121094 173.816406 198.300781 187.839844 201.835938 C 201.859375 205.371094 227.230469 173.167969 227.230469 173.167969 C 227.230469 173.167969 234.601562 173.132812 236.046875 172.984375 C 242.035156 172.382812 242.058594 168.105469 240.703125 167.09375 " fill-opacity="1" fill-rule="nonzero"/><path fill="#011936" d="M 178.265625 175.023438 C 177.757812 179.183594 176.121094 198.207031 188 201.203125 C 201.453125 204.597656 226.464844 173.082031 226.71875 172.765625 C 226.839844 172.609375 227.027344 172.519531 227.226562 172.515625 C 227.296875 172.515625 234.585938 172.480469 235.984375 172.339844 C 238.546875 172.082031 240.257812 171.050781 240.6875 169.519531 C 240.921875 168.675781 240.679688 167.886719 240.3125 167.609375 C 237.042969 165.164062 231.707031 162.144531 230.074219 163.105469 C 228.6875 163.921875 227.238281 165.210938 226.039062 169.074219 C 225.976562 169.28125 225.808594 169.445312 225.597656 169.507812 L 190.390625 179.570312 C 190.253906 179.609375 190.109375 179.605469 189.976562 179.554688 Z M 190.101562 202.753906 C 189.265625 202.753906 188.457031 202.660156 187.679688 202.464844 C 173.246094 198.828125 176.925781 175.027344 177.089844 174.015625 C 177.121094 173.824219 177.238281 173.65625 177.410156 173.558594 C 177.578125 173.457031 177.78125 173.441406 177.964844 173.511719 L 190.242188 178.261719 L 224.90625 168.351562 C 226.214844 164.324219 227.847656 162.90625 229.414062 161.984375 C 232.4375 160.207031 240.214844 165.914062 241.09375 166.570312 C 241.953125 167.214844 242.300781 168.570312 241.9375 169.867188 C 241.664062 170.847656 240.550781 173.1875 236.113281 173.632812 C 234.808594 173.765625 228.984375 173.808594 227.542969 173.816406 C 225.117188 176.855469 204.039062 202.75 190.101562 202.753906 " fill-opacity="1" fill-rule="nonzero"/><path fill="#011936" d="M 259.726562 155.332031 C 259.597656 155.332031 259.472656 155.296875 259.359375 155.21875 L 243.257812 144.226562 C 242.960938 144.027344 242.886719 143.621094 243.089844 143.324219 C 243.292969 143.027344 243.695312 142.949219 243.992188 143.152344 L 260.09375 154.144531 C 260.390625 154.347656 260.464844 154.75 260.265625 155.046875 C 260.136719 155.230469 259.933594 155.332031 259.726562 155.332031 " fill-opacity="1" fill-rule="nonzero"/><path fill="#011936" d="M 257.480469 157.683594 C 257.359375 157.683594 257.234375 157.648438 257.125 157.578125 L 241.078125 147.175781 C 240.773438 146.980469 240.691406 146.578125 240.882812 146.277344 C 241.078125 145.976562 241.484375 145.890625 241.785156 146.085938 L 257.832031 156.484375 C 258.136719 156.683594 258.222656 157.085938 258.023438 157.386719 C 257.902344 157.578125 257.691406 157.683594 257.480469 157.683594 " fill-opacity="1" fill-rule="nonzero"/><path fill="#011936" d="M 246.609375 184.550781 C 246.546875 184.550781 246.484375 184.542969 246.425781 184.527344 C 237.859375 182.019531 233.09375 177.59375 232.894531 177.410156 C 232.632812 177.164062 232.621094 176.75 232.863281 176.492188 C 233.109375 176.226562 233.523438 176.21875 233.785156 176.460938 C 233.832031 176.507812 238.542969 180.867188 246.789062 183.277344 C 247.136719 183.375 247.332031 183.738281 247.230469 184.082031 C 247.148438 184.367188 246.890625 184.550781 246.609375 184.550781 " fill-opacity="1" fill-rule="nonzero"/><path fill="#011936" d="M 245.578125 188.726562 C 245.519531 188.726562 245.460938 188.714844 245.402344 188.699219 C 238.523438 186.753906 233.179688 182.882812 232.957031 182.71875 C 232.667969 182.507812 232.605469 182.101562 232.8125 181.808594 C 233.027344 181.519531 233.433594 181.457031 233.722656 181.667969 C 233.777344 181.707031 239.113281 185.566406 245.753906 187.449219 C 246.101562 187.546875 246.304688 187.90625 246.203125 188.25 C 246.125 188.539062 245.863281 188.726562 245.578125 188.726562 " fill-opacity="1" fill-rule="nonzero"/><path fill="#011936" d="M 263.632812 152.039062 C 263.558594 152.039062 263.484375 152.027344 263.410156 152 C 263.074219 151.878906 262.894531 151.503906 263.019531 151.167969 L 266.195312 142.386719 C 266.316406 142.046875 266.691406 141.871094 267.03125 141.992188 C 267.367188 142.113281 267.542969 142.488281 267.417969 142.828125 L 264.242188 151.609375 C 264.148438 151.875 263.898438 152.039062 263.632812 152.039062 " fill-opacity="1" fill-rule="nonzero"/><path fill="#011936" d="M 261.300781 150.273438 C 261.257812 150.273438 261.21875 150.269531 261.171875 150.261719 C 260.820312 150.191406 260.59375 149.847656 260.664062 149.496094 L 261.550781 145.085938 C 261.617188 144.734375 261.960938 144.503906 262.316406 144.574219 C 262.667969 144.644531 262.894531 144.992188 262.824219 145.34375 L 261.9375 149.753906 C 261.875 150.0625 261.605469 150.273438 261.300781 150.273438 " fill-opacity="1" fill-rule="nonzero"/><path fill="#011936" d="M 251.675781 184.03125 C 251.359375 184.03125 251.082031 183.800781 251.03125 183.476562 C 250.980469 183.121094 251.222656 182.789062 251.578125 182.734375 L 257.382812 181.839844 C 257.730469 181.785156 258.066406 182.027344 258.121094 182.382812 C 258.175781 182.738281 257.933594 183.070312 257.578125 183.125 L 251.777344 184.019531 C 251.742188 184.023438 251.710938 184.03125 251.675781 184.03125 " fill-opacity="1" fill-rule="nonzero"/><path fill="#011936" d="M 252.296875 180.183594 C 251.984375 180.183594 251.707031 179.953125 251.65625 179.632812 C 251.601562 179.277344 251.84375 178.945312 252.199219 178.886719 L 256.71875 178.1875 C 257.070312 178.136719 257.40625 178.378906 257.460938 178.730469 C 257.515625 179.085938 257.273438 179.417969 256.917969 179.476562 L 252.398438 180.175781 C 252.363281 180.179688 252.332031 180.183594 252.296875 180.183594 " fill-opacity="1" fill-rule="nonzero"/><path fill="#011936" d="M 241.425781 169.519531 C 241.359375 169.519531 241.289062 169.511719 241.214844 169.484375 L 232.011719 166.328125 C 231.671875 166.210938 231.488281 165.839844 231.605469 165.503906 C 231.722656 165.160156 232.09375 164.980469 232.433594 165.097656 L 241.640625 168.253906 C 241.976562 168.371094 242.160156 168.742188 242.042969 169.082031 C 241.949219 169.351562 241.699219 169.519531 241.425781 169.519531 " fill-opacity="1" fill-rule="nonzero"/><path fill="#011936" d="M 240.90625 171.25 C 240.847656 171.25 240.785156 171.238281 240.722656 171.222656 L 231.738281 168.550781 C 231.394531 168.445312 231.199219 168.085938 231.300781 167.742188 C 231.402344 167.398438 231.765625 167.203125 232.109375 167.300781 L 241.09375 169.972656 C 241.4375 170.078125 241.632812 170.4375 241.53125 170.78125 C 241.449219 171.066406 241.1875 171.25 240.90625 171.25 " fill-opacity="1" fill-rule="nonzero"/><path fill="#011936" d="M 239.195312 172.773438 C 239.136719 172.773438 239.078125 172.765625 239.019531 172.75 C 236.292969 171.988281 231.828125 170.765625 231.347656 170.683594 C 231.015625 170.65625 230.753906 170.378906 230.753906 170.035156 C 230.753906 169.675781 231.042969 169.386719 231.402344 169.386719 C 231.507812 169.386719 231.789062 169.386719 239.371094 171.496094 C 239.714844 171.589844 239.917969 171.949219 239.820312 172.296875 C 239.742188 172.582031 239.480469 172.773438 239.195312 172.773438 " fill-opacity="1" fill-rule="nonzero"/><path fill="#f6f4ff" d="M 231.414062 122.929688 C 231.480469 122.675781 226.585938 117.46875 226.585938 117.46875 L 217.671875 118.171875 C 212.34375 117.933594 211.796875 128.195312 211.796875 128.195312 C 211.796875 128.195312 212.171875 129.304688 212.363281 130.605469 C 210.503906 135.171875 205.003906 147.699219 199.816406 149.625 C 196.722656 150.777344 204.816406 161.058594 211.746094 161.207031 C 218.679688 161.355469 226.167969 158.738281 226.277344 156.113281 C 226.382812 153.488281 217.828125 147.601562 217.828125 147.601562 L 219.152344 144.839844 C 220.019531 145.363281 220.917969 145.824219 221.769531 146.148438 C 222.886719 146.570312 224.125 145.976562 224.503906 144.84375 L 226.835938 137.863281 L 228.03125 138.160156 C 228.683594 138.324219 229.460938 137.847656 229.363281 137.179688 C 228.53125 131.550781 230.925781 124.875 231.414062 122.929688 " fill-opacity="1" fill-rule="nonzero"/><path fill="#011936" d="M 230.78125 122.773438 C 230.78125 122.773438 230.78125 122.777344 230.78125 122.777344 C 230.78125 122.777344 230.78125 122.773438 230.78125 122.773438 Z M 212.457031 128.113281 C 212.5625 128.453125 212.84375 129.414062 213.003906 130.515625 C 213.019531 130.628906 213.007812 130.746094 212.964844 130.855469 C 210.863281 136.019531 205.398438 148.246094 200.042969 150.238281 C 199.933594 150.277344 199.707031 150.359375 199.816406 150.996094 C 200.308594 153.929688 206.597656 160.445312 211.757812 160.554688 C 218.550781 160.699219 225.542969 158.078125 225.625 156.085938 C 225.6875 154.523438 220.890625 150.5 217.457031 148.140625 C 217.195312 147.957031 217.101562 147.613281 217.238281 147.324219 L 218.5625 144.5625 C 218.644531 144.394531 218.789062 144.269531 218.964844 144.21875 C 219.140625 144.164062 219.328125 144.1875 219.484375 144.28125 C 220.410156 144.835938 221.253906 145.257812 222 145.542969 C 222.371094 145.683594 222.773438 145.664062 223.132812 145.496094 C 223.492188 145.324219 223.761719 145.019531 223.886719 144.640625 L 226.21875 137.660156 C 226.324219 137.335938 226.664062 137.152344 226.992188 137.234375 L 228.1875 137.53125 C 228.335938 137.566406 228.53125 137.519531 228.648438 137.414062 C 228.726562 137.34375 228.71875 137.296875 228.714844 137.277344 C 227.996094 132.378906 229.648438 126.699219 230.445312 123.972656 C 230.550781 123.605469 230.644531 123.285156 230.714844 123.027344 C 230.210938 122.363281 228.21875 120.164062 226.324219 118.144531 L 217.722656 118.824219 C 217.695312 118.824219 217.667969 118.824219 217.644531 118.824219 C 213.289062 118.625 212.535156 127.019531 212.457031 128.113281 Z M 212.292969 161.863281 C 212.101562 161.863281 211.917969 161.863281 211.730469 161.859375 C 205.703125 161.726562 199.09375 154.550781 198.53125 151.210938 C 198.273438 149.679688 199.1875 149.167969 199.589844 149.015625 C 204.53125 147.183594 210.015625 134.617188 211.691406 130.527344 C 211.507812 129.375 211.183594 128.414062 211.179688 128.40625 C 211.152344 128.328125 211.144531 128.246094 211.144531 128.160156 C 211.171875 127.722656 211.777344 117.519531 217.480469 117.519531 C 217.539062 117.519531 217.601562 117.519531 217.65625 117.523438 L 226.535156 116.820312 C 226.730469 116.804688 226.925781 116.882812 227.058594 117.027344 C 232.191406 122.488281 232.148438 122.675781 232.042969 123.085938 C 231.964844 123.394531 231.847656 123.816406 231.695312 124.335938 C 230.925781 126.976562 229.324219 132.46875 230.003906 137.085938 C 230.074219 137.566406 229.898438 138.035156 229.519531 138.378906 C 229.082031 138.777344 228.449219 138.9375 227.867188 138.792969 L 227.261719 138.640625 L 225.121094 145.050781 C 224.882812 145.769531 224.375 146.34375 223.691406 146.667969 C 223.011719 146.992188 222.246094 147.023438 221.542969 146.757812 C 220.898438 146.515625 220.1875 146.179688 219.433594 145.757812 L 218.652344 147.386719 C 220.796875 148.898438 227.03125 153.523438 226.925781 156.140625 C 226.792969 159.390625 218.949219 161.863281 212.292969 161.863281 " fill-opacity="1" fill-rule="nonzero"/><path fill="#011936" d="M 218.828125 128.746094 C 218.878906 128.476562 218.945312 128.0625 218.976562 127.554688 C 219.128906 124.925781 218.054688 123.613281 218.726562 122.539062 C 219.097656 121.949219 219.78125 121.765625 220.167969 121.664062 C 222.097656 121.148438 223.808594 122.664062 227.472656 125.09375 C 232.023438 128.105469 232.527344 128.492188 233.601562 128.496094 C 236.328125 128.5 238.816406 126.019531 239.863281 123.5625 C 240.15625 122.875 241.621094 119.175781 239.324219 116 C 237.667969 113.707031 234.714844 112.597656 231.773438 113.15625 C 231.84375 112.34375 231.796875 111.148438 231.054688 110.257812 C 229.28125 108.148438 224.960938 109.4375 223.449219 109.886719 C 222.050781 110.304688 219.460938 111.308594 216.898438 113.90625 C 216.558594 113.46875 215.253906 111.894531 213.238281 111.75 C 210.242188 111.535156 208.304688 114.667969 208.125 114.964844 C 206.039062 118.449219 207.753906 122.960938 209.046875 126.367188 C 209.976562 128.816406 211.09375 130.679688 211.894531 131.875 C 212.640625 131.777344 213.386719 131.675781 214.132812 131.578125 C 213.714844 130.898438 213.015625 129.539062 213.0625 127.773438 C 213.078125 127.199219 213.121094 124.851562 214.355469 124.421875 C 215.242188 124.113281 216.226562 124.96875 216.367188 125.09375 C 217.863281 126.390625 217.453125 128.691406 217.414062 128.894531 C 217.882812 128.84375 218.355469 128.796875 218.828125 128.746094 " fill-opacity="1" fill-rule="nonzero"/><path fill="#f6f4ff" d="M 213.015625 136.34375 L 213.015625 136.796875 C 213.015625 137.800781 213.207031 139.640625 213.886719 140.382812 L 219.152344 144.839844 L 213.015625 136.34375 " fill-opacity="1" fill-rule="nonzero"/><path fill="#011936" d="M 219.148438 145.488281 C 219.003906 145.488281 218.851562 145.4375 218.730469 145.335938 L 213.464844 140.878906 C 213.445312 140.859375 213.421875 140.839844 213.40625 140.820312 C 212.414062 139.734375 212.363281 137.28125 212.363281 136.796875 L 212.363281 136.34375 C 212.363281 135.984375 212.65625 135.691406 213.015625 135.691406 C 213.375 135.691406 213.667969 135.984375 213.667969 136.34375 L 213.667969 136.796875 C 213.667969 137.929688 213.902344 139.390625 214.34375 139.914062 L 219.570312 144.34375 C 219.847656 144.574219 219.878906 144.984375 219.648438 145.257812 C 219.519531 145.410156 219.335938 145.488281 219.148438 145.488281 " fill-opacity="1" fill-rule="nonzero"/><path fill="#011936" d="M 85.085938 329.429688 C 84.957031 329.429688 84.828125 329.394531 84.710938 329.316406 C 65.164062 315.628906 48.871094 297.679688 37.601562 277.40625 C 37.425781 277.09375 37.539062 276.695312 37.851562 276.519531 C 38.167969 276.347656 38.5625 276.460938 38.738281 276.773438 C 49.914062 296.875 66.070312 314.671875 85.457031 328.25 C 85.753906 328.453125 85.824219 328.859375 85.617188 329.152344 C 85.492188 329.335938 85.289062 329.429688 85.085938 329.429688 " fill-opacity="1" fill-rule="nonzero"/><path fill="#011936" d="M 285.714844 323.488281 C 285.519531 323.488281 285.332031 323.402344 285.203125 323.242188 C 284.976562 322.960938 285.027344 322.550781 285.304688 322.332031 C 304.410156 307.121094 319.679688 287.683594 329.472656 266.125 C 329.621094 265.800781 330.003906 265.65625 330.332031 265.804688 C 330.660156 265.953125 330.804688 266.335938 330.65625 266.664062 C 320.78125 288.410156 305.378906 308.007812 286.113281 323.347656 C 286 323.441406 285.855469 323.488281 285.714844 323.488281 " fill-opacity="1" fill-rule="nonzero"/><path fill="#011936" d="M 341.734375 220.714844 C 341.703125 220.714844 341.671875 220.714844 341.640625 220.710938 C 341.285156 220.660156 341.039062 220.328125 341.089844 219.972656 C 341.925781 214.230469 342.347656 208.355469 342.347656 202.515625 C 342.347656 180.765625 336.429688 159.292969 325.238281 140.414062 C 325.054688 140.105469 325.15625 139.707031 325.46875 139.523438 C 325.773438 139.339844 326.175781 139.441406 326.359375 139.75 C 337.667969 158.828125 343.648438 180.535156 343.648438 202.515625 C 343.648438 208.417969 343.21875 214.355469 342.378906 220.160156 C 342.332031 220.484375 342.050781 220.714844 341.734375 220.714844 " fill-opacity="1" fill-rule="nonzero"/><path fill="#011936" d="M 252.675781 70.628906 C 252.582031 70.628906 252.484375 70.609375 252.394531 70.566406 C 243.421875 66.257812 233.800781 63.472656 223.792969 62.289062 C 223.441406 62.25 223.183594 61.925781 223.226562 61.570312 C 223.269531 61.210938 223.59375 60.957031 223.949219 61 C 234.097656 62.199219 243.851562 65.023438 252.957031 69.390625 C 253.28125 69.546875 253.417969 69.9375 253.261719 70.257812 C 253.148438 70.492188 252.917969 70.628906 252.675781 70.628906 " fill-opacity="1" fill-rule="nonzero"/><path fill="#011936" d="M 89.226562 340.636719 C 89.121094 340.636719 89.011719 340.613281 88.914062 340.558594 C 64.804688 327.328125 43.925781 306.367188 30.117188 281.53125 C 29.941406 281.214844 30.054688 280.820312 30.367188 280.644531 C 30.683594 280.472656 31.078125 280.582031 31.253906 280.898438 C 44.945312 305.523438 65.644531 326.308594 89.539062 339.417969 C 89.855469 339.589844 89.96875 339.984375 89.796875 340.300781 C 89.679688 340.515625 89.457031 340.636719 89.226562 340.636719 " fill-opacity="1" fill-rule="nonzero"/><path fill="#011936" d="M 280.816406 338.785156 C 280.617188 338.785156 280.417969 338.695312 280.292969 338.515625 C 280.082031 338.226562 280.148438 337.820312 280.4375 337.609375 C 301.207031 322.601562 318.167969 302.980469 329.480469 280.863281 C 329.644531 280.542969 330.039062 280.417969 330.359375 280.582031 C 330.675781 280.742188 330.804688 281.136719 330.640625 281.457031 C 319.230469 303.753906 302.132812 323.539062 281.199219 338.664062 C 281.085938 338.746094 280.953125 338.785156 280.816406 338.785156 " fill-opacity="1" fill-rule="nonzero"/><path fill="#011936" d="M 348.910156 229.816406 C 348.878906 229.816406 348.847656 229.8125 348.816406 229.808594 C 348.457031 229.757812 348.214844 229.425781 348.265625 229.070312 C 349.304688 221.921875 349.832031 214.609375 349.832031 207.339844 C 349.832031 180.269531 342.46875 153.535156 328.535156 130.035156 C 328.347656 129.726562 328.453125 129.328125 328.761719 129.144531 C 329.070312 128.964844 329.472656 129.0625 329.652344 129.371094 C 343.703125 153.070312 351.132812 180.035156 351.132812 207.339844 C 351.132812 214.671875 350.601562 222.046875 349.550781 229.257812 C 349.507812 229.582031 349.226562 229.816406 348.910156 229.816406 " fill-opacity="1" fill-rule="nonzero"/><path fill="#011936" d="M 250.976562 63.546875 C 250.882812 63.546875 250.789062 63.523438 250.695312 63.480469 C 237.660156 57.222656 223.679688 53.179688 209.144531 51.460938 C 208.785156 51.417969 208.53125 51.09375 208.574219 50.738281 C 208.617188 50.378906 208.941406 50.128906 209.296875 50.167969 C 223.972656 51.902344 238.089844 55.988281 251.257812 62.308594 C 251.582031 62.464844 251.71875 62.851562 251.566406 63.175781 C 251.453125 63.410156 251.21875 63.546875 250.976562 63.546875 " fill-opacity="1" fill-rule="nonzero"/><path fill="#011936" d="M 65.113281 292.753906 C 63.550781 292.753906 62.277344 294.023438 62.277344 295.589844 C 62.277344 297.152344 63.550781 298.425781 65.113281 298.425781 C 66.675781 298.425781 67.945312 297.152344 67.945312 295.589844 C 67.945312 294.023438 66.675781 292.753906 65.113281 292.753906 Z M 65.113281 299.722656 C 62.832031 299.722656 60.976562 297.867188 60.976562 295.589844 C 60.976562 293.308594 62.832031 291.453125 65.113281 291.453125 C 67.394531 291.453125 69.25 293.308594 69.25 295.589844 C 69.25 297.867188 67.394531 299.722656 65.113281 299.722656 " fill-opacity="1" fill-rule="nonzero"/><path fill="#011936" d="M 69.945312 304.109375 L 75.722656 308.847656 C 75.878906 306.382812 76.625 303.71875 77.730469 301.679688 C 74.253906 302.230469 71.332031 303.453125 69.945312 304.109375 Z M 76.351562 310.851562 C 76.203125 310.851562 76.058594 310.800781 75.9375 310.703125 L 68.34375 304.480469 C 68.175781 304.347656 68.089844 304.136719 68.109375 303.921875 C 68.128906 303.707031 68.25 303.515625 68.441406 303.410156 C 68.632812 303.304688 73.195312 300.789062 78.9375 300.210938 C 79.191406 300.183594 79.4375 300.3125 79.5625 300.53125 C 79.691406 300.75 79.679688 301.027344 79.53125 301.234375 C 77.941406 303.457031 76.902344 307.136719 77 310.179688 C 77.007812 310.433594 76.867188 310.671875 76.640625 310.785156 C 76.546875 310.828125 76.449219 310.851562 76.351562 310.851562 " fill-opacity="1" fill-rule="nonzero"/><path fill="#011936" d="M 333.886719 286.855469 C 332.605469 286.855469 331.5625 287.898438 331.5625 289.179688 C 331.5625 290.460938 332.605469 291.503906 333.886719 291.503906 C 335.167969 291.503906 336.210938 290.460938 336.210938 289.179688 C 336.210938 287.898438 335.167969 286.855469 333.886719 286.855469 Z M 333.886719 292.804688 C 331.886719 292.804688 330.261719 291.179688 330.261719 289.179688 C 330.261719 287.179688 331.886719 285.554688 333.886719 285.554688 C 335.886719 285.554688 337.511719 287.179688 337.511719 289.179688 C 337.511719 291.179688 335.886719 292.804688 333.886719 292.804688 " fill-opacity="1" fill-rule="nonzero"/><path fill="#011936" d="M 322.96875 302.453125 L 330.175781 303.136719 L 326.730469 296.851562 C 325.972656 298.171875 324.550781 300.507812 322.96875 302.453125 Z M 331.332031 304.554688 C 331.3125 304.554688 331.292969 304.554688 331.273438 304.550781 L 321.59375 303.625 C 321.347656 303.601562 321.136719 303.441406 321.046875 303.210938 C 320.960938 302.980469 321.007812 302.722656 321.175781 302.539062 C 323.703125 299.789062 326.136719 295.246094 326.164062 295.199219 C 326.273438 294.988281 326.496094 294.855469 326.734375 294.855469 C 326.988281 294.855469 327.191406 294.984375 327.308594 295.195312 L 331.90625 303.589844 C 332.019531 303.800781 332.011719 304.058594 331.875 304.261719 C 331.757812 304.445312 331.554688 304.554688 331.332031 304.554688 " fill-opacity="1" fill-rule="nonzero"/><path fill="#011936" d="M 340.230469 134.195312 C 338.949219 134.195312 337.90625 135.238281 337.90625 136.523438 C 337.90625 137.804688 338.949219 138.84375 340.230469 138.84375 C 341.515625 138.84375 342.554688 137.804688 342.554688 136.523438 C 342.554688 135.238281 341.515625 134.195312 340.230469 134.195312 Z M 340.230469 140.148438 C 338.234375 140.148438 336.605469 138.519531 336.605469 136.523438 C 336.605469 134.523438 338.234375 132.894531 340.230469 132.894531 C 342.230469 132.894531 343.855469 134.523438 343.855469 136.523438 C 343.855469 138.519531 342.230469 140.148438 340.230469 140.148438 " fill-opacity="1" fill-rule="nonzero"/><path fill="#011936" d="M 343.449219 148.160156 L 344.644531 151.703125 L 346.867188 148.773438 C 346.039062 148.605469 344.789062 148.367188 343.449219 148.160156 Z M 344.421875 153.71875 C 344.382812 153.71875 344.347656 153.71875 344.3125 153.714844 C 344.074219 153.675781 343.878906 153.507812 343.800781 153.277344 L 341.878906 147.570312 C 341.808594 147.359375 341.847656 147.121094 341.996094 146.949219 C 342.136719 146.777344 342.359375 146.691406 342.582031 146.71875 C 345.359375 147.09375 348.121094 147.710938 348.148438 147.714844 C 348.367188 147.765625 348.539062 147.917969 348.617188 148.128906 C 348.691406 148.332031 348.65625 148.566406 348.523438 148.746094 L 344.9375 153.464844 C 344.8125 153.628906 344.621094 153.71875 344.421875 153.71875 " fill-opacity="1" fill-rule="nonzero"/><path fill="#011936" d="M 353.839844 179.613281 C 353.601562 179.613281 353.371094 179.476562 353.257812 179.25 C 353.15625 179.039062 352.730469 178.691406 352.355469 178.378906 C 351.550781 177.714844 350.546875 176.886719 350.390625 175.765625 C 350.261719 174.828125 350.859375 173.851562 351.441406 172.902344 C 351.894531 172.164062 352.40625 171.332031 352.3125 170.859375 C 352.160156 170.085938 351.320312 169.351562 350.507812 168.644531 C 349.625 167.878906 348.714844 167.082031 348.464844 166.066406 C 348.179688 164.910156 348.546875 163.675781 348.871094 162.585938 C 349.101562 161.804688 349.34375 160.996094 349.214844 160.539062 C 348.695312 158.71875 346.566406 158.085938 346.542969 158.082031 C 346.199219 157.980469 346 157.621094 346.101562 157.273438 C 346.199219 156.929688 346.558594 156.730469 346.902344 156.828125 C 347.019531 156.863281 349.75 157.675781 350.464844 160.183594 C 350.699219 161.003906 350.417969 161.953125 350.117188 162.957031 C 349.828125 163.933594 349.53125 164.941406 349.726562 165.753906 C 349.882812 166.371094 350.632812 167.027344 351.363281 167.660156 C 352.339844 168.515625 353.355469 169.398438 353.589844 170.613281 C 353.777344 171.582031 353.15625 172.597656 352.550781 173.582031 C 352.109375 174.300781 351.613281 175.113281 351.675781 175.582031 C 351.765625 176.207031 352.519531 176.828125 353.183594 177.375 C 353.730469 177.824219 354.199219 178.214844 354.425781 178.675781 C 354.585938 178.996094 354.449219 179.386719 354.128906 179.546875 C 354.035156 179.59375 353.9375 179.613281 353.839844 179.613281 " fill-opacity="1" fill-rule="nonzero"/><path fill="#011936" d="M 237.59375 51.855469 C 237.222656 51.855469 236.859375 51.792969 236.515625 51.640625 C 235.660156 51.246094 235.160156 50.210938 234.675781 49.207031 C 234.296875 48.433594 233.871094 47.550781 233.429688 47.375 C 232.691406 47.082031 231.621094 47.394531 230.585938 47.699219 C 229.460938 48.023438 228.304688 48.363281 227.3125 48.023438 C 226.183594 47.640625 225.34375 46.667969 224.601562 45.808594 C 224.070312 45.191406 223.519531 44.554688 223.0625 44.417969 C 221.246094 43.871094 219.570312 45.320312 219.554688 45.335938 C 219.285156 45.570312 218.871094 45.546875 218.636719 45.277344 C 218.398438 45.003906 218.425781 44.59375 218.695312 44.359375 C 218.789062 44.277344 220.945312 42.421875 223.4375 43.171875 C 224.257812 43.417969 224.902344 44.164062 225.585938 44.957031 C 226.25 45.726562 226.941406 46.523438 227.734375 46.792969 C 228.332031 47 229.292969 46.722656 230.21875 46.449219 C 231.46875 46.085938 232.753906 45.710938 233.910156 46.164062 C 234.824219 46.527344 235.34375 47.601562 235.84375 48.640625 C 236.214844 49.398438 236.628906 50.257812 237.058594 50.457031 C 237.632812 50.71875 238.5625 50.417969 239.382812 50.152344 C 240.058594 49.9375 240.636719 49.75 241.144531 49.8125 C 241.503906 49.851562 241.757812 50.175781 241.71875 50.53125 C 241.679688 50.886719 241.351562 51.144531 240.996094 51.101562 C 240.765625 51.074219 240.242188 51.246094 239.78125 51.394531 C 239.117188 51.605469 238.34375 51.855469 237.59375 51.855469 " fill-opacity="1" fill-rule="nonzero"/><path fill="#011936" d="M 248 51.464844 C 246.71875 51.464844 245.675781 52.507812 245.675781 53.792969 C 245.675781 55.074219 246.71875 56.117188 248 56.117188 C 249.28125 56.117188 250.324219 55.074219 250.324219 53.792969 C 250.324219 52.507812 249.28125 51.464844 248 51.464844 Z M 248 57.417969 C 246.003906 57.417969 244.375 55.789062 244.375 53.792969 C 244.375 51.792969 246.003906 50.164062 248 50.164062 C 250 50.164062 251.625 51.792969 251.625 53.792969 C 251.625 55.789062 250 57.417969 248 57.417969 " fill-opacity="1" fill-rule="nonzero"/><path fill="#f9dc5c" d="M 134.066406 176.308594 L 115.546875 199.121094 L 133.296875 211.015625 C 133.296875 211.015625 135.328125 180.066406 134.066406 176.308594 " fill-opacity="1" fill-rule="nonzero"/><path fill="#f9dc5c" d="M 65.65625 198.339844 C 63.492188 199.273438 33.425781 212.820312 31.164062 241.304688 C 30.851562 245.253906 29.78125 258.769531 38.296875 268.308594 C 55.304688 287.355469 100.148438 278.898438 123.1875 254.160156 C 126.347656 250.765625 143.667969 232.167969 138.144531 215.550781 C 131.316406 195.019531 92.65625 186.679688 65.65625 198.339844 " fill-opacity="1" fill-rule="nonzero"/><path fill="#f6f4ff" d="M 38.167969 253.980469 C 37.871094 253.980469 37.605469 253.777344 37.535156 253.476562 C 36.234375 247.847656 36.632812 242.78125 36.804688 240.621094 C 38.851562 214.847656 66.488281 202.628906 67.664062 202.121094 C 74.851562 199.015625 83.25 197.375 91.949219 197.375 C 92.011719 197.375 92.070312 197.375 92.128906 197.375 C 92.488281 197.378906 92.777344 197.667969 92.777344 198.03125 C 92.777344 198.386719 92.488281 198.675781 92.128906 198.675781 C 92.070312 198.6875 92.007812 198.675781 91.949219 198.675781 C 83.421875 198.675781 75.207031 200.28125 68.179688 203.316406 C 67.035156 203.808594 40.085938 215.722656 38.101562 240.722656 C 37.9375 242.824219 37.546875 247.753906 38.804688 253.183594 C 38.882812 253.535156 38.664062 253.882812 38.316406 253.964844 C 38.265625 253.976562 38.214844 253.980469 38.167969 253.980469 " fill-opacity="1" fill-rule="nonzero"/><path fill="#f9dc5c" d="M 299.296875 122.164062 C 291.226562 122.257812 272.632812 122.476562 257.441406 109.4375 C 251.714844 104.527344 245.070312 98.820312 245.046875 91.332031 C 244.988281 74.867188 276.996094 60.394531 303.304688 57.976562 C 307.890625 57.558594 349.160156 54.160156 356.226562 73.097656 C 361.355469 86.835938 346.042969 105.828125 331.9375 114.445312 C 319.707031 121.921875 307.617188 122.0625 299.296875 122.164062 " fill-opacity="1" fill-rule="nonzero"/><path fill="#f9dc5c" d="M 265.691406 106.410156 C 265.691406 106.410156 256.726562 118.785156 260.800781 132.632812 C 260.800781 132.632812 267.664062 112.925781 275.921875 112.582031 L 265.691406 106.410156 " fill-opacity="1" fill-rule="nonzero"/><path fill="#f6f4ff" d="M 253.992188 85.972656 C 253.835938 85.972656 253.683594 85.917969 253.558594 85.804688 C 253.292969 85.566406 253.269531 85.152344 253.511719 84.886719 C 253.765625 84.601562 259.90625 77.882812 273.675781 72.042969 C 286.335938 66.667969 308.097656 61.117188 339.871094 65.164062 C 340.226562 65.210938 340.476562 65.539062 340.433594 65.894531 C 340.386719 66.25 340.058594 66.5 339.703125 66.457031 C 308.269531 62.449219 286.773438 67.914062 274.269531 73.203125 C 260.734375 78.929688 254.535156 85.691406 254.476562 85.757812 C 254.347656 85.898438 254.171875 85.972656 253.992188 85.972656 " fill-opacity="1" fill-rule="nonzero"/></svg>