<svg xmlns="http://www.w3.org/2000/svg" xmlns:xlink="http://www.w3.org/1999/xlink" width="500" zoomAndPan="magnify" viewBox="0 0 375 374.999991" height="500" preserveAspectRatio="xMidYMid meet" version="1.0"><path fill="#ff5757" d="M 278.542969 346.847656 C 222.257812 374.476562 119.804688 352.828125 82.539062 311.714844 C 18.804688 241.390625 32.652344 131.207031 60.183594 94.1875 C 130.238281 0.00390625 197.863281 65.460938 234.574219 74.753906 C 288.726562 88.457031 342.335938 88.753906 350.996094 188.042969 C 356.214844 247.84375 348.597656 312.464844 278.542969 346.847656 " fill-opacity="1" fill-rule="nonzero"/><path fill="#011936" d="M 330.988281 152.378906 C 313.621094 135.878906 304.441406 135.136719 297 118.765625 C 292.816406 109.558594 297.371094 70.636719 259.789062 69.148438 C 254.941406 68.953125 236.304688 69.972656 233.863281 89.488281 C 232.882812 97.351562 233.351562 102.824219 233.871094 107.230469 C 234.320312 111.03125 234.257812 114.878906 233.597656 118.648438 C 232.625 124.203125 230.277344 130.445312 224.902344 134.464844 C 224.484375 134.773438 224.84375 135.429688 225.332031 135.246094 C 228.125 134.1875 232.050781 132.214844 234.859375 128.839844 C 235.105469 128.539062 235.589844 128.75 235.542969 129.136719 C 235.523438 129.3125 235.5 129.496094 235.476562 129.679688 C 234.394531 137.929688 221.085938 146.175781 224.808594 162.175781 C 228.53125 178.179688 313.871094 212.414062 328.011719 205.34375 C 342.152344 198.273438 346.988281 167.574219 330.988281 152.378906 " fill-opacity="1" fill-rule="nonzero"/><path fill="#ed254e" d="M 318.6875 154.894531 C 318.6875 154.894531 302.929688 141.027344 278.972656 138.191406 C 278.972656 138.191406 237.371094 137.875 220.664062 153.320312 C 203.960938 168.765625 193.875 203.433594 194.820312 229.277344 L 318.6875 266.785156 L 318.6875 154.894531 " fill-opacity="1" fill-rule="nonzero"/><path fill="#ed254e" d="M 267.785156 158.835938 C 267.785156 158.835938 277.714844 161.355469 284.960938 156 L 304.5 213.992188 C 304.5 213.992188 294.882812 159.113281 318.519531 154.859375 C 318.519531 154.859375 334.894531 164.347656 332.226562 196.164062 C 329.296875 231.144531 324.832031 255.125 308.285156 256.542969 C 291.738281 257.960938 272.199219 251.65625 267.785156 158.835938 " fill-opacity="1" fill-rule="nonzero"/><path fill="#ed254e" d="M 125.398438 164.335938 L 139.34375 156.371094 C 139.738281 156.148438 140.242188 156.273438 140.480469 156.660156 C 143.5 161.566406 162.078125 190.792969 175.878906 191.15625 C 190.941406 191.554688 210.296875 161.679688 219.570312 154.394531 L 231.90625 194.179688 C 231.90625 194.179688 208.632812 226.90625 166.527344 228.503906 C 143.144531 229.394531 126.816406 171.953125 125 165.285156 C 124.902344 164.917969 125.0625 164.527344 125.398438 164.335938 " fill-opacity="1" fill-rule="nonzero"/><path fill="#ff5757" d="M 302.996094 257.367188 C 295.515625 257.367188 290.109375 255.648438 285.863281 252.003906 C 279.957031 246.933594 275.992188 237.996094 272.996094 223.011719 C 270.246094 209.246094 268.238281 190.136719 266.289062 159.113281 C 266.269531 158.800781 266.507812 158.527344 266.824219 158.507812 C 267.132812 158.488281 267.410156 158.726562 267.429688 159.042969 C 270.765625 212.070312 274.648438 240.871094 286.605469 251.136719 C 291.617188 255.4375 298.082031 256.882812 308.234375 255.972656 C 308.539062 255.945312 308.824219 256.175781 308.855469 256.492188 C 308.882812 256.804688 308.648438 257.082031 308.335938 257.113281 C 306.445312 257.28125 304.671875 257.367188 302.996094 257.367188 " fill-opacity="1" fill-rule="nonzero"/><path fill="#ff5757" d="M 308.289062 222.535156 C 308.054688 222.535156 307.832031 222.386719 307.75 222.148438 L 285.421875 156.40625 C 285.320312 156.109375 285.480469 155.78125 285.777344 155.683594 C 286.078125 155.582031 286.402344 155.738281 286.503906 156.039062 L 308.832031 221.78125 C 308.933594 222.078125 308.773438 222.402344 308.472656 222.503906 C 308.414062 222.527344 308.351562 222.535156 308.289062 222.535156 " fill-opacity="1" fill-rule="nonzero"/><path fill="#ff5757" d="M 302.585938 188.804688 C 302.582031 188.804688 302.578125 188.804688 302.574219 188.804688 C 302.261719 188.796875 302.007812 188.535156 302.015625 188.222656 C 302.269531 174.316406 304.933594 164.496094 309.9375 159.027344 C 310.148438 158.792969 310.511719 158.777344 310.746094 158.992188 C 310.976562 159.207031 310.992188 159.566406 310.78125 159.800781 C 305.96875 165.054688 303.40625 174.625 303.15625 188.242188 C 303.152344 188.554688 302.898438 188.804688 302.585938 188.804688 " fill-opacity="1" fill-rule="nonzero"/><path fill="#ff5757" d="M 223.816406 200.207031 C 223.503906 200.207031 223.246094 199.953125 223.246094 199.636719 L 223.246094 179.542969 C 223.246094 179.226562 223.503906 178.972656 223.816406 178.972656 C 224.132812 178.972656 224.386719 179.226562 224.386719 179.542969 L 224.386719 199.636719 C 224.386719 199.953125 224.132812 200.207031 223.816406 200.207031 " fill-opacity="1" fill-rule="nonzero"/><path fill="#ffffff" d="M 256.316406 118.761719 C 256.316406 118.761719 256.710938 129.675781 256.253906 136.949219 C 256.042969 140.382812 253.652344 143.285156 250.339844 144.195312 L 245.980469 145.390625 C 243.738281 146.003906 243.515625 149.097656 245.652344 150.027344 C 254.074219 153.6875 271.003906 158.363281 290.902344 149.320312 C 293.023438 148.355469 292.773438 145.269531 290.515625 144.683594 L 281.9375 142.457031 C 278.75 141.632812 276.382812 138.949219 275.960938 135.683594 L 272.6875 110.328125 L 256.316406 118.761719 " fill-opacity="1" fill-rule="nonzero"/><path fill="#011936" d="M 256.898438 119.105469 C 256.960938 121.066406 257.230469 130.511719 256.824219 136.988281 C 256.597656 140.648438 254.050781 143.769531 250.492188 144.746094 L 246.132812 145.9375 C 245.179688 146.199219 244.789062 146.984375 244.742188 147.632812 C 244.695312 148.277344 244.972656 149.109375 245.878906 149.503906 C 254.132812 153.089844 270.929688 157.765625 290.667969 148.800781 C 291.574219 148.386719 291.839844 147.546875 291.78125 146.898438 C 291.726562 146.257812 291.328125 145.484375 290.371094 145.238281 L 281.792969 143.011719 C 278.359375 142.121094 275.847656 139.273438 275.394531 135.757812 L 272.226562 111.210938 Z M 267.429688 155.113281 C 257.949219 155.113281 250.257812 152.648438 245.421875 150.550781 C 244.226562 150.03125 243.511719 148.851562 243.605469 147.550781 C 243.695312 146.25 244.570312 145.183594 245.832031 144.839844 L 250.1875 143.644531 C 253.277344 142.796875 255.488281 140.09375 255.683594 136.917969 C 256.132812 129.75 255.75 118.894531 255.746094 118.785156 L 255.730469 118.421875 L 273.152344 109.445312 L 276.527344 135.609375 C 276.921875 138.660156 279.101562 141.132812 282.082031 141.90625 L 290.660156 144.128906 C 291.921875 144.457031 292.808594 145.503906 292.917969 146.800781 C 293.03125 148.101562 292.335938 149.296875 291.136719 149.839844 C 282.542969 153.746094 274.488281 155.113281 267.429688 155.113281 " fill-opacity="1" fill-rule="nonzero"/><path fill="#ffffff" d="M 244.839844 83.28125 C 241.382812 86.941406 239.589844 91.863281 239.601562 96.902344 C 239.605469 99.761719 241.097656 102.523438 241.558594 106.417969 C 242.734375 116.46875 246.992188 124.496094 258.625 123.703125 C 258.625 123.703125 272.585938 122.945312 274.292969 107.972656 C 274.292969 107.972656 275.109375 100.425781 271.699219 92.464844 C 269.40625 87.121094 262.917969 76.320312 252.875 78.59375 C 249.421875 79.375 246.796875 81.210938 244.839844 83.28125 " fill-opacity="1" fill-rule="nonzero"/><path fill="#011936" d="M 245.253906 83.675781 C 241.964844 87.15625 240.15625 91.851562 240.167969 96.902344 C 240.171875 98.332031 240.570312 99.742188 241.03125 101.375 C 241.4375 102.824219 241.898438 104.46875 242.121094 106.355469 C 243.523438 118.304688 248.910156 123.792969 258.582031 123.136719 C 259.140625 123.105469 272.09375 122.214844 273.722656 107.910156 C 273.730469 107.839844 274.480469 100.410156 271.171875 92.691406 C 270.023438 90.003906 263.730469 76.722656 253 79.152344 C 250.066406 79.816406 247.460938 81.335938 245.253906 83.675781 Z M 257.082031 124.332031 C 247.792969 124.332031 242.378906 118.335938 240.988281 106.488281 C 240.777344 104.691406 240.347656 103.164062 239.929688 101.683594 C 239.46875 100.039062 239.03125 98.488281 239.027344 96.902344 C 239.015625 91.5625 240.929688 86.585938 244.421875 82.890625 C 246.789062 80.386719 249.589844 78.753906 252.746094 78.039062 C 264.363281 75.40625 271.007812 89.410156 272.222656 92.242188 C 275.652344 100.246094 274.894531 107.722656 274.855469 108.035156 C 273.117188 123.3125 258.796875 124.265625 258.652344 124.277344 C 258.117188 124.3125 257.59375 124.332031 257.082031 124.332031 " fill-opacity="1" fill-rule="nonzero"/><path fill="#011936" d="M 264.625 80.300781 C 264.625 80.300781 263.136719 85.523438 254.957031 92.242188 C 249.652344 96.601562 240.410156 97.59375 238.847656 101.148438 C 238.847656 101.148438 233.160156 79.542969 251.546875 77.078125 C 269.933594 74.613281 264.625 80.300781 264.625 80.300781 " fill-opacity="1" fill-rule="nonzero"/><path fill="#011936" d="M 337.6875 272.773438 C 337.632812 272.773438 337.578125 272.765625 337.523438 272.75 L 226.261719 240.003906 C 225.957031 239.914062 225.785156 239.59375 225.875 239.292969 C 225.964844 238.992188 226.28125 238.820312 226.582031 238.90625 L 337.847656 271.652344 C 338.148438 271.742188 338.324219 272.0625 338.234375 272.363281 C 338.160156 272.613281 337.933594 272.773438 337.6875 272.773438 " fill-opacity="1" fill-rule="nonzero"/><path fill="#ffffff" d="M 136.5625 157.050781 C 134.636719 152.867188 132.917969 144.789062 130.960938 142.011719 C 129 139.238281 126.703125 136.832031 123.042969 134.535156 C 121.164062 133.355469 117.328125 131.09375 114.386719 130.308594 C 111.449219 129.523438 112.734375 135.199219 115.371094 136.214844 C 118.007812 137.230469 120.039062 139.089844 119.316406 139.589844 C 118.8125 139.9375 117.417969 141.445312 114.726562 140.800781 C 111.710938 140.078125 109.710938 137.238281 109.785156 134.136719 C 109.800781 133.601562 109.855469 133.054688 109.96875 132.523438 C 110.664062 129.289062 109.140625 125.925781 106.101562 124.617188 C 104.664062 124 102.933594 123.691406 100.902344 124.027344 C 97.6875 124.558594 96.917969 142.859375 109.175781 148.753906 C 111.714844 149.976562 122.160156 152.125 124.3125 155.089844 C 126.460938 158.054688 128.007812 162.242188 128.007812 162.242188 L 136.5625 157.050781 " fill-opacity="1" fill-rule="nonzero"/><path fill="#011936" d="M 102.535156 124.460938 C 102.03125 124.460938 101.515625 124.503906 100.996094 124.589844 C 100.613281 124.65625 99.933594 125.5625 99.609375 127.8125 C 98.796875 133.492188 100.742188 144.066406 109.425781 148.242188 C 110.160156 148.597656 111.675781 149.054688 113.433594 149.589844 C 117.769531 150.90625 123.167969 152.542969 124.773438 154.753906 C 126.460938 157.082031 127.765625 160.097656 128.292969 161.402344 L 135.835938 156.824219 C 135.070312 155.039062 134.332031 152.691406 133.617188 150.414062 C 132.605469 147.191406 131.558594 143.855469 130.492188 142.34375 C 128.308594 139.25 125.992188 137.058594 122.738281 135.019531 C 120.785156 133.792969 117.082031 131.621094 114.242188 130.859375 C 113.582031 130.683594 113.4375 130.949219 113.351562 131.210938 C 112.984375 132.335938 113.988281 135.070312 115.574219 135.683594 C 117.609375 136.46875 119.886719 138.03125 120.027344 139.1875 C 120.070312 139.542969 119.925781 139.863281 119.640625 140.0625 C 119.585938 140.097656 119.523438 140.148438 119.445312 140.210938 C 118.78125 140.742188 117.222656 141.992188 114.589844 141.359375 C 111.394531 140.589844 109.132812 137.546875 109.214844 134.125 C 109.230469 133.511719 109.296875 132.933594 109.410156 132.40625 C 110.0625 129.359375 108.578125 126.308594 105.875 125.144531 C 104.816406 124.691406 103.699219 124.460938 102.535156 124.460938 Z M 127.710938 163.089844 L 127.46875 162.441406 C 127.457031 162.398438 125.925781 158.289062 123.847656 155.425781 C 122.46875 153.523438 116.832031 151.8125 113.101562 150.679688 C 111.226562 150.113281 109.746094 149.664062 108.929688 149.269531 C 99.695312 144.828125 97.621094 133.652344 98.480469 127.648438 C 98.839844 125.140625 99.667969 123.652344 100.808594 123.464844 C 102.75 123.144531 104.605469 123.355469 106.324219 124.097656 C 109.527344 125.472656 111.292969 129.066406 110.527344 132.648438 C 110.425781 133.105469 110.371094 133.613281 110.355469 134.152344 C 110.289062 137.042969 112.179688 139.605469 114.859375 140.246094 C 116.945312 140.746094 118.109375 139.820312 118.734375 139.320312 C 118.777344 139.285156 118.816406 139.253906 118.855469 139.222656 C 118.609375 138.761719 117.269531 137.5625 115.164062 136.75 C 113.042969 135.929688 111.6875 132.632812 112.265625 130.859375 C 112.585938 129.875 113.433594 129.464844 114.535156 129.757812 C 117.519531 130.554688 121.335938 132.789062 123.34375 134.050781 C 126.6875 136.148438 129.179688 138.503906 131.425781 141.683594 C 132.59375 143.339844 133.621094 146.609375 134.707031 150.074219 C 135.476562 152.519531 136.269531 155.050781 137.082031 156.8125 L 137.292969 157.277344 L 127.710938 163.089844 " fill-opacity="1" fill-rule="nonzero"/><path fill="#ffffff" d="M 124.382812 156.898438 L 134.898438 150.996094 C 135.363281 150.734375 135.949219 150.910156 136.195312 151.386719 L 139.734375 158.265625 C 139.964844 158.71875 139.796875 159.273438 139.351562 159.519531 L 128.785156 165.367188 C 128.320312 165.625 127.734375 165.445312 127.492188 164.96875 L 124.003906 158.144531 C 123.773438 157.695312 123.941406 157.144531 124.382812 156.898438 " fill-opacity="1" fill-rule="nonzero"/><path fill="#011936" d="M 135.355469 151.445312 C 135.292969 151.445312 135.234375 151.460938 135.175781 151.492188 L 124.660156 157.394531 C 124.488281 157.492188 124.421875 157.707031 124.511719 157.886719 L 128 164.710938 C 128.046875 164.800781 128.125 164.867188 128.222656 164.894531 C 128.316406 164.925781 128.421875 164.914062 128.507812 164.867188 L 139.074219 159.019531 C 139.25 158.921875 139.316406 158.707031 139.226562 158.527344 L 135.6875 151.648438 C 135.640625 151.558594 135.5625 151.492188 135.464844 151.460938 C 135.429688 151.453125 135.390625 151.445312 135.355469 151.445312 Z M 128.332031 166.054688 C 128.183594 166.054688 128.035156 166.035156 127.886719 165.988281 C 127.492188 165.867188 127.171875 165.597656 126.984375 165.230469 L 123.496094 158.40625 C 123.125 157.679688 123.390625 156.796875 124.101562 156.398438 L 134.617188 150.5 C 134.976562 150.296875 135.398438 150.25 135.792969 150.367188 C 136.191406 150.488281 136.511719 150.757812 136.703125 151.125 L 140.242188 158.003906 C 140.617188 158.734375 140.347656 159.621094 139.628906 160.019531 L 129.0625 165.863281 C 128.832031 165.992188 128.585938 166.054688 128.332031 166.054688 " fill-opacity="1" fill-rule="nonzero"/><path fill="#011936" d="M 266.773438 118.65625 C 265.671875 118.65625 264.554688 118.503906 263.445312 118.183594 L 252.144531 114.902344 L 252.464844 113.804688 L 263.765625 117.082031 C 268.808594 118.546875 274.121094 116.175781 276.398438 111.441406 L 278.703125 106.652344 L 279.730469 107.148438 L 277.425781 111.9375 C 275.40625 116.136719 271.230469 118.65625 266.773438 118.65625 " fill-opacity="1" fill-rule="nonzero"/><path fill="#ff5757" d="M 278.839844 94.898438 C 278.53125 94.898438 278.277344 94.648438 278.269531 94.335938 C 278.265625 94.195312 277.871094 80.007812 270.34375 72.996094 C 267.34375 70.203125 263.582031 68.902344 259.15625 69.117188 C 258.832031 69.140625 258.574219 68.890625 258.558594 68.578125 C 258.542969 68.261719 258.785156 67.996094 259.101562 67.980469 C 263.847656 67.742188 267.894531 69.152344 271.125 72.160156 C 279.007812 79.507812 279.398438 93.710938 279.410156 94.3125 C 279.417969 94.628906 279.167969 94.890625 278.851562 94.898438 C 278.847656 94.898438 278.84375 94.898438 278.839844 94.898438 " fill-opacity="1" fill-rule="nonzero"/><path fill="#ed254e" d="M 248.019531 114.304688 C 247.804688 112.617188 249.027344 111.074219 250.746094 110.855469 C 252.464844 110.640625 254.027344 111.832031 254.242188 113.519531 C 254.453125 115.203125 253.234375 116.75 251.519531 116.96875 C 249.800781 117.183594 248.234375 115.992188 248.019531 114.304688 " fill-opacity="1" fill-rule="nonzero"/><path fill="#ed254e" d="M 270.664062 102.082031 C 270.066406 97.347656 273.097656 93.066406 277.4375 92.519531 C 277.914062 92.457031 279.679688 92.414062 280.140625 92.445312 C 283.90625 92.699219 285.84375 95.878906 286.378906 100.09375 C 286.953125 104.636719 285.222656 108.886719 281.160156 109.691406 C 280.992188 109.726562 279.789062 109.824219 279.613281 109.824219 C 274.855469 109.839844 271.261719 106.816406 270.664062 102.082031 " fill-opacity="1" fill-rule="nonzero"/><path fill="#f9dc5c" d="M 272.542969 101.929688 C 272.035156 97.183594 275.152344 92.960938 279.503906 92.5 C 283.851562 92.035156 287.789062 95.503906 288.296875 100.246094 C 288.800781 104.992188 285.6875 109.210938 281.335938 109.675781 C 276.984375 110.140625 273.046875 106.671875 272.542969 101.929688 " fill-opacity="1" fill-rule="nonzero"/><path fill="#ffffff" d="M 258.644531 109.507812 C 259.675781 108.148438 266.996094 110.925781 269.992188 112.03125 C 272.988281 113.132812 280.707031 123.535156 281.339844 130.46875 C 281.96875 137.402344 279.921875 149.066406 281.5 153.160156 C 281.5 153.160156 277.714844 156.628906 270.621094 155.683594 C 270.621094 155.683594 269.835938 149.066406 268.417969 146.699219 C 266.996094 144.335938 258.332031 138.03125 258.960938 133.777344 C 259.4375 130.550781 265.542969 128.136719 268.457031 127.160156 C 268.929688 127.003906 268.898438 126.324219 268.417969 126.21875 C 266.921875 125.882812 264.523438 125.609375 261.957031 126.371094 C 257.699219 127.632812 253.917969 125.582031 255.652344 123.21875 C 257.207031 121.097656 263.457031 118.847656 267.914062 119.320312 C 268.097656 119.339844 268.164062 119.09375 267.996094 119.019531 C 264.527344 117.492188 255.851562 113.191406 258.644531 109.507812 " fill-opacity="1" fill-rule="nonzero"/><path fill="#011936" d="M 271.132812 155.171875 C 276.5625 155.761719 279.875 153.675781 280.828125 152.96875 C 280.050781 150.417969 280.316406 145.851562 280.597656 141.03125 C 280.8125 137.308594 281.035156 133.460938 280.769531 130.519531 C 280.160156 123.808594 272.601562 113.597656 269.792969 112.566406 L 269.417969 112.425781 C 267.800781 111.828125 265.351562 110.925781 263.152344 110.320312 C 259.550781 109.328125 259.105469 109.851562 259.101562 109.851562 C 258.703125 110.378906 258.582031 110.925781 258.734375 111.523438 C 259.246094 113.5 262.796875 116.105469 268.226562 118.5 C 268.558594 118.644531 268.730469 119.003906 268.636719 119.351562 C 268.542969 119.703125 268.214844 119.925781 267.855469 119.890625 C 263.605469 119.4375 257.539062 121.609375 256.113281 123.558594 C 255.726562 124.082031 255.6875 124.546875 255.996094 124.980469 C 256.710938 126 259.132812 126.613281 261.792969 125.824219 C 264.453125 125.035156 266.929688 125.300781 268.539062 125.660156 C 269.007812 125.765625 269.339844 126.160156 269.363281 126.640625 C 269.390625 127.125 269.097656 127.550781 268.640625 127.703125 C 263.234375 129.511719 259.828125 131.8125 259.523438 133.863281 C 259.132812 136.511719 263.050781 140.347656 265.910156 143.148438 C 267.316406 144.527344 268.429688 145.613281 268.90625 146.40625 C 270.167969 148.507812 270.925781 153.617188 271.132812 155.171875 Z M 273.050781 156.417969 C 272.265625 156.417969 271.433594 156.367188 270.546875 156.25 L 270.109375 156.191406 L 270.054688 155.75 C 270.046875 155.6875 269.265625 149.226562 267.925781 146.992188 C 267.523438 146.328125 266.40625 145.230469 265.109375 143.964844 C 261.90625 140.828125 257.917969 136.921875 258.394531 133.695312 C 258.894531 130.335938 264.503906 127.910156 268 126.714844 C 266.523438 126.417969 264.390625 126.246094 262.117188 126.917969 C 259.214844 127.777344 256.179688 127.226562 255.058594 125.636719 C 254.472656 124.800781 254.519531 123.796875 255.191406 122.882812 C 256.609375 120.945312 261.542969 118.894531 265.945312 118.699219 C 262.574219 117.054688 258.328125 114.5 257.628906 111.808594 C 257.386719 110.867188 257.574219 109.976562 258.191406 109.164062 C 259.230469 107.789062 263.242188 108.929688 269.8125 111.355469 L 270.191406 111.496094 C 273.273438 112.628906 281.253906 123.210938 281.90625 130.417969 C 282.179688 133.445312 281.953125 137.332031 281.734375 141.097656 C 281.460938 145.835938 281.175781 150.738281 282.027344 152.957031 L 282.167969 153.320312 L 281.882812 153.582031 C 281.738281 153.714844 278.710938 156.417969 273.050781 156.417969 " fill-opacity="1" fill-rule="nonzero"/><path fill="#ffffff" d="M 269.238281 150.96875 C 271.023438 151.21875 275.765625 151.476562 281.5 148.53125 C 281.847656 148.351562 282.273438 148.5625 282.347656 148.945312 L 283.679688 155.632812 C 283.730469 155.890625 283.613281 156.144531 283.386719 156.269531 C 281.839844 157.121094 275.792969 160.078125 269.664062 158.09375 C 269.445312 158.019531 269.289062 157.824219 269.261719 157.59375 L 268.566406 151.625 C 268.519531 151.238281 268.851562 150.914062 269.238281 150.96875 " fill-opacity="1" fill-rule="nonzero"/><path fill="#011936" d="M 269.152344 151.53125 C 269.148438 151.53125 269.144531 151.535156 269.140625 151.539062 L 269.832031 157.527344 C 275.695312 159.449219 281.476562 156.667969 283.109375 155.769531 L 281.789062 149.058594 C 275.878906 152.058594 270.988281 151.789062 269.15625 151.535156 C 269.15625 151.535156 269.152344 151.53125 269.152344 151.53125 Z M 274.0625 159.339844 C 272.589844 159.339844 271.042969 159.140625 269.492188 158.636719 C 269.058594 158.496094 268.746094 158.113281 268.691406 157.660156 L 268 151.691406 C 267.957031 151.332031 268.082031 150.976562 268.339844 150.722656 C 268.601562 150.46875 268.953125 150.351562 269.3125 150.402344 C 271.035156 150.644531 275.648438 150.894531 281.238281 148.023438 C 281.5625 147.855469 281.941406 147.851562 282.273438 148.011719 C 282.605469 148.171875 282.835938 148.472656 282.910156 148.835938 L 284.242188 155.523438 C 284.339844 156.023438 284.105469 156.523438 283.660156 156.773438 C 282.355469 157.488281 278.550781 159.339844 274.0625 159.339844 " fill-opacity="1" fill-rule="nonzero"/><path fill="#011936" d="M 169.957031 78.078125 L 169.960938 78.078125 Z M 187.5625 68.917969 C 186.050781 68.917969 184.527344 69.089844 183.015625 69.433594 C 177.765625 70.640625 173.300781 73.820312 170.441406 78.382812 C 167.582031 82.945312 166.667969 88.351562 167.875 93.597656 C 169.082031 98.847656 172.257812 103.3125 176.820312 106.171875 C 186.242188 112.074219 198.707031 109.210938 204.613281 99.789062 C 207.472656 95.226562 208.382812 89.824219 207.175781 84.574219 C 205.96875 79.324219 202.792969 74.859375 198.230469 72 C 194.980469 69.964844 191.308594 68.917969 187.5625 68.917969 Z M 187.492188 110.382812 C 183.628906 110.382812 179.722656 109.335938 176.214844 107.140625 C 171.394531 104.117188 168.035156 99.402344 166.761719 93.855469 C 165.488281 88.308594 166.449219 82.597656 169.472656 77.777344 C 172.492188 72.953125 177.210938 69.597656 182.757812 68.324219 C 188.304688 67.046875 194.015625 68.011719 198.835938 71.03125 C 203.660156 74.054688 207.015625 78.769531 208.289062 84.316406 C 209.5625 89.863281 208.601562 95.574219 205.578125 100.394531 C 201.542969 106.84375 194.59375 110.382812 187.492188 110.382812 " fill-opacity="1" fill-rule="nonzero"/><path fill="#011936" d="M 182.546875 76.855469 C 182.445312 76.855469 182.34375 76.867188 182.242188 76.890625 C 181.886719 76.972656 181.585938 77.183594 181.394531 77.492188 L 174.023438 89.257812 C 173.832031 89.566406 173.769531 89.929688 173.851562 90.28125 C 173.933594 90.636719 174.148438 90.933594 174.453125 91.128906 L 191.488281 101.800781 C 191.796875 101.992188 192.164062 102.054688 192.511719 101.972656 C 192.867188 101.890625 193.167969 101.679688 193.359375 101.371094 L 200.730469 89.605469 C 200.921875 89.300781 200.984375 88.933594 200.902344 88.582031 C 200.820312 88.226562 200.609375 87.929688 200.300781 87.734375 L 183.265625 77.0625 C 183.046875 76.925781 182.796875 76.855469 182.546875 76.855469 Z M 192.203125 103.152344 C 191.742188 103.152344 191.285156 103.019531 190.882812 102.765625 L 173.847656 92.09375 C 173.28125 91.742188 172.886719 91.1875 172.738281 90.535156 C 172.589844 89.886719 172.703125 89.21875 173.054688 88.652344 L 180.425781 76.886719 C 181.160156 75.71875 182.703125 75.363281 183.871094 76.09375 L 200.90625 86.769531 C 201.472656 87.121094 201.867188 87.675781 202.015625 88.328125 C 202.167969 88.976562 202.050781 89.648438 201.699219 90.210938 L 194.328125 101.976562 C 193.972656 102.542969 193.417969 102.9375 192.769531 103.085938 C 192.582031 103.128906 192.394531 103.152344 192.203125 103.152344 " fill-opacity="1" fill-rule="nonzero"/><path fill="#011936" d="M 187.035156 90.71875 C 186.820312 90.71875 186.613281 90.597656 186.519531 90.386719 L 182.675781 82.027344 C 182.542969 81.738281 182.667969 81.402344 182.957031 81.269531 C 183.246094 81.136719 183.582031 81.265625 183.714844 81.550781 L 187.554688 89.910156 C 187.6875 90.195312 187.5625 90.535156 187.273438 90.667969 C 187.199219 90.699219 187.117188 90.71875 187.035156 90.71875 " fill-opacity="1" fill-rule="nonzero"/><path fill="#011936" d="M 187.082031 90.75 C 186.769531 90.75 186.515625 90.5 186.511719 90.1875 C 186.503906 89.871094 186.753906 89.613281 187.070312 89.605469 L 196.265625 89.417969 C 196.578125 89.394531 196.84375 89.660156 196.851562 89.976562 C 196.855469 90.289062 196.605469 90.550781 196.289062 90.558594 L 187.09375 90.75 C 187.089844 90.75 187.085938 90.75 187.082031 90.75 " fill-opacity="1" fill-rule="nonzero"/><path fill="#ed254e" d="M 115.902344 93.789062 L 103.085938 96.675781 C 101.503906 97.035156 100.277344 98.277344 99.941406 99.859375 L 98.230469 107.910156 L 92.367188 101.292969 C 91.367188 100.160156 89.828125 99.664062 88.355469 99.996094 L 76.5625 102.652344 C 74.332031 103.15625 72.109375 101.753906 71.609375 99.519531 L 65.96875 74.496094 C 65.464844 72.261719 66.867188 70.042969 69.101562 69.539062 L 108.441406 60.675781 C 110.675781 60.171875 112.894531 61.574219 113.398438 63.808594 L 119.039062 88.832031 C 119.539062 91.066406 118.136719 93.285156 115.902344 93.789062 " fill-opacity="1" fill-rule="nonzero"/><path fill="#011936" d="M 77.695312 78.648438 C 77.4375 78.648438 77.199219 78.46875 77.140625 78.203125 C 77.070312 77.894531 77.261719 77.589844 77.570312 77.519531 L 105.851562 71.070312 C 106.160156 71 106.464844 71.191406 106.535156 71.5 C 106.605469 71.808594 106.414062 72.117188 106.105469 72.1875 L 77.824219 78.632812 C 77.78125 78.644531 77.738281 78.648438 77.695312 78.648438 " fill-opacity="1" fill-rule="nonzero"/><path fill="#011936" d="M 78.523438 85.429688 C 78.265625 85.429688 78.027344 85.25 77.96875 84.984375 C 77.898438 84.675781 78.089844 84.371094 78.398438 84.300781 L 99.359375 79.523438 C 99.664062 79.449219 99.972656 79.640625 100.042969 79.949219 C 100.113281 80.257812 99.917969 80.566406 99.609375 80.632812 L 78.652344 85.414062 C 78.609375 85.425781 78.566406 85.429688 78.523438 85.429688 " fill-opacity="1" fill-rule="nonzero"/><path fill="#011936" d="M 80.839844 92.046875 C 80.578125 92.046875 80.34375 91.867188 80.28125 91.601562 C 80.210938 91.292969 80.40625 90.988281 80.710938 90.917969 L 108.992188 84.46875 C 109.300781 84.394531 109.605469 84.589844 109.675781 84.898438 C 109.746094 85.207031 109.554688 85.511719 109.246094 85.582031 L 80.964844 92.03125 C 80.921875 92.042969 80.882812 92.046875 80.839844 92.046875 " fill-opacity="1" fill-rule="nonzero"/><path fill="#ffffff" d="M 87.164062 130.648438 L 80.53125 137.132812 C 79.710938 137.933594 79.433594 139.136719 79.820312 140.210938 L 81.773438 145.683594 L 75.796875 143.875 C 74.777344 143.566406 73.667969 143.839844 72.902344 144.585938 L 66.800781 150.546875 C 65.644531 151.675781 63.792969 151.65625 62.664062 150.5 L 50.003906 137.546875 C 48.875 136.390625 48.894531 134.539062 50.050781 133.40625 L 70.414062 113.507812 C 71.574219 112.378906 73.425781 112.402344 74.554688 113.558594 L 87.214844 126.511719 C 88.34375 127.667969 88.320312 129.519531 87.164062 130.648438 " fill-opacity="1" fill-rule="nonzero"/><path fill="#f9dc5c" d="M 58.179688 136.039062 C 58.03125 136.039062 57.886719 135.980469 57.773438 135.867188 C 57.550781 135.640625 57.558594 135.277344 57.78125 135.058594 L 71.839844 121.332031 C 72.066406 121.113281 72.425781 121.117188 72.648438 121.339844 C 72.867188 121.566406 72.863281 121.929688 72.636719 122.148438 L 58.582031 135.875 C 58.46875 135.984375 58.324219 136.039062 58.179688 136.039062 " fill-opacity="1" fill-rule="nonzero"/><path fill="#f9dc5c" d="M 61.984375 139.347656 C 61.835938 139.347656 61.6875 139.289062 61.578125 139.175781 C 61.355469 138.949219 61.359375 138.589844 61.585938 138.367188 L 75.644531 124.640625 C 75.867188 124.421875 76.230469 124.421875 76.453125 124.648438 C 76.671875 124.875 76.667969 125.238281 76.441406 125.457031 L 62.382812 139.183594 C 62.273438 139.292969 62.128906 139.347656 61.984375 139.347656 " fill-opacity="1" fill-rule="nonzero"/><path fill="#f9dc5c" d="M 65.292969 142.652344 C 65.144531 142.652344 64.996094 142.597656 64.886719 142.480469 C 64.664062 142.253906 64.667969 141.894531 64.894531 141.671875 L 78.953125 127.945312 C 79.179688 127.726562 79.539062 127.730469 79.761719 127.957031 C 79.980469 128.179688 79.976562 128.542969 79.75 128.761719 L 65.691406 142.492188 C 65.582031 142.597656 65.4375 142.652344 65.292969 142.652344 " fill-opacity="1" fill-rule="nonzero"/><path fill="#011936" d="M 46.503906 207.878906 C 47.542969 218.949219 57.390625 227.109375 68.460938 226.070312 C 73.820312 225.566406 78.667969 223.007812 82.101562 218.859375 C 85.539062 214.710938 87.152344 209.476562 86.652344 204.113281 C 86.148438 198.75 83.585938 193.90625 79.441406 190.472656 C 75.292969 187.035156 70.054688 185.421875 64.695312 185.921875 C 53.625 186.960938 45.464844 196.8125 46.503906 207.878906 Z M 66.5625 227.300781 C 55.703125 227.300781 46.398438 219.007812 45.367188 207.984375 C 44.269531 196.289062 52.890625 185.882812 64.585938 184.785156 C 76.28125 183.691406 86.691406 192.3125 87.789062 204.007812 C 88.320312 209.671875 86.613281 215.207031 82.984375 219.585938 C 79.351562 223.972656 74.234375 226.675781 68.566406 227.207031 C 67.894531 227.269531 67.222656 227.300781 66.5625 227.300781 " fill-opacity="1" fill-rule="nonzero"/><path fill="#011936" d="M 62.925781 194.367188 C 62.917969 194.367188 62.910156 194.371094 62.902344 194.371094 L 61.886719 194.558594 C 61.140625 194.695312 60.472656 195.070312 60.007812 195.609375 C 57.75 198.246094 58.277344 203.734375 61.292969 208.953125 C 64.316406 214.191406 68.8125 217.390625 72.226562 216.734375 C 72.917969 216.601562 73.5625 216.21875 74.039062 215.65625 L 74.726562 214.851562 C 74.78125 214.785156 74.785156 214.632812 74.730469 214.5625 L 71.980469 211.15625 C 71.863281 211.011719 71.554688 210.859375 71.355469 210.867188 L 70.898438 210.875 C 70.585938 210.882812 70.246094 210.957031 69.894531 211.101562 C 67.898438 211.921875 65.992188 210.695312 64.0625 207.355469 C 62.140625 204.023438 62.027344 201.765625 63.714844 200.445312 C 64.03125 200.195312 64.320312 199.859375 64.566406 199.449219 L 64.667969 199.277344 C 64.765625 199.117188 64.796875 198.769531 64.726562 198.59375 L 63.152344 194.511719 C 63.125 194.4375 63.015625 194.367188 62.925781 194.367188 Z M 71.304688 217.960938 C 67.589844 217.960938 63.304688 214.726562 60.304688 209.523438 C 57 203.800781 56.53125 197.914062 59.140625 194.867188 C 59.773438 194.128906 60.675781 193.621094 61.679688 193.433594 L 62.695312 193.246094 C 63.320312 193.132812 63.992188 193.507812 64.21875 194.101562 L 65.792969 198.183594 C 65.988281 198.683594 65.921875 199.410156 65.648438 199.867188 L 65.546875 200.039062 C 65.226562 200.570312 64.847656 201.007812 64.417969 201.34375 C 63.992188 201.679688 62.691406 202.695312 65.050781 206.78125 C 67.417969 210.882812 68.957031 210.253906 69.460938 210.046875 C 69.945312 209.847656 70.421875 209.742188 70.875 209.734375 L 71.339844 209.726562 C 71.886719 209.714844 72.53125 210.023438 72.871094 210.4375 L 75.617188 213.84375 C 76.019531 214.339844 76.007812 215.105469 75.59375 215.589844 L 74.910156 216.394531 C 74.261719 217.15625 73.386719 217.675781 72.441406 217.855469 C 72.070312 217.925781 71.691406 217.960938 71.304688 217.960938 " fill-opacity="1" fill-rule="nonzero"/><path fill="#ffffff" d="M 225.980469 295.917969 L 117.746094 264.46875 C 116.066406 263.976562 114.910156 262.4375 114.910156 260.691406 L 114.910156 186.519531 C 114.910156 183.898438 117.421875 182.007812 119.941406 182.742188 L 228.175781 214.195312 C 229.855469 214.683594 230.765625 216.246094 230.765625 217.996094 L 230.597656 291.675781 C 230.597656 294.296875 228.496094 296.652344 225.980469 295.917969 " fill-opacity="1" fill-rule="nonzero"/><path fill="#011936" d="M 226.140625 295.371094 C 227.199219 295.679688 228.011719 295.300781 228.503906 294.929688 C 229.445312 294.226562 230.027344 292.980469 230.027344 291.675781 L 230.191406 217.996094 C 230.191406 216.378906 229.359375 215.132812 228.015625 214.742188 L 119.78125 183.289062 C 118.753906 182.992188 117.679688 183.1875 116.824219 183.828125 C 115.96875 184.472656 115.480469 185.449219 115.480469 186.519531 L 115.480469 260.691406 C 115.480469 262.175781 116.476562 263.503906 117.90625 263.917969 Z M 226.90625 296.625 C 226.546875 296.625 226.183594 296.574219 225.820312 296.46875 L 117.585938 265.015625 C 115.675781 264.460938 114.339844 262.683594 114.339844 260.691406 L 114.339844 186.519531 C 114.339844 185.089844 114.996094 183.777344 116.136719 182.917969 C 117.28125 182.058594 118.726562 181.792969 120.101562 182.195312 L 228.335938 213.648438 C 230.15625 214.175781 231.335938 215.882812 231.335938 217.996094 L 231.167969 291.679688 C 231.167969 293.332031 230.410156 294.929688 229.191406 295.84375 C 228.503906 296.359375 227.714844 296.625 226.90625 296.625 " fill-opacity="1" fill-rule="nonzero"/><path fill="#011936" d="M 228.175781 214.195312 L 227.167969 213.902344 L 227.167969 296.050781 C 229.230469 296.007812 231.011719 294.347656 231.011719 292.140625 L 231.011719 217.972656 C 231.011719 216.222656 229.855469 214.683594 228.175781 214.195312 " fill-opacity="1" fill-rule="nonzero"/><path fill="#f9dc5c" d="M 179.121094 300.4375 L 179.121094 241.058594 C 179.121094 238.09375 177.175781 235.484375 174.335938 234.636719 L 158.5 229.90625 C 155.730469 229.082031 152.949219 231.152344 152.949219 234.042969 L 152.949219 307.726562 C 152.949219 309.441406 154.074219 310.949219 155.714844 311.4375 L 177.789062 318.03125 C 178.648438 318.285156 179.574219 318.234375 180.402344 317.886719 L 199.570312 309.769531 C 200.894531 309.207031 200.804688 307.300781 199.4375 306.867188 L 179.121094 300.4375 " fill-opacity="1" fill-rule="nonzero"/><path fill="#ff5757" d="M 183.339844 215.664062 L 155.324219 207.273438 C 154.945312 207.15625 154.683594 206.808594 154.683594 206.414062 L 154.683594 203.96875 C 154.683594 203.355469 155.277344 202.917969 155.863281 203.089844 L 183.085938 211.246094 C 183.679688 211.425781 184.082031 211.96875 184.082031 212.585938 L 184.082031 215.109375 C 184.082031 215.496094 183.710938 215.777344 183.339844 215.664062 " fill-opacity="1" fill-rule="nonzero"/><path fill="#ff5757" d="M 179.699219 315.027344 C 179.386719 315.027344 179.128906 314.773438 179.128906 314.457031 L 179.128906 298.332031 C 179.128906 298.015625 179.386719 297.761719 179.699219 297.761719 C 180.015625 297.761719 180.273438 298.015625 180.273438 298.332031 L 180.273438 314.457031 C 180.273438 314.773438 180.015625 315.027344 179.699219 315.027344 " fill-opacity="1" fill-rule="nonzero"/><path fill="#ed254e" d="M 124.003906 295.796875 C 124.003906 305.457031 108.605469 328.671875 104.917969 334.09375 C 104.539062 334.652344 103.71875 334.652344 103.34375 334.09375 C 100.699219 330.210938 92.058594 317.207031 87.363281 306.589844 C 85.5 302.375 84.257812 298.539062 84.257812 295.796875 C 84.257812 284.820312 93.15625 275.921875 104.128906 275.921875 C 115.105469 275.921875 124.003906 284.820312 124.003906 295.796875 " fill-opacity="1" fill-rule="nonzero"/><path fill="#ffffff" d="M 113.214844 295.796875 C 113.214844 300.8125 109.148438 304.882812 104.128906 304.882812 C 99.113281 304.882812 95.042969 300.8125 95.042969 295.796875 C 95.042969 290.777344 99.113281 286.710938 104.128906 286.710938 C 109.148438 286.710938 113.214844 290.777344 113.214844 295.796875 " fill-opacity="1" fill-rule="nonzero"/><path fill="#011936" d="M 105.902344 304.402344 C 103.832031 304.402344 101.746094 303.738281 99.992188 302.375 C 97.953125 300.792969 96.652344 298.511719 96.328125 295.953125 C 96.292969 295.640625 96.511719 295.355469 96.824219 295.3125 C 97.136719 295.277344 97.425781 295.496094 97.464844 295.808594 C 97.746094 298.066406 98.894531 300.078125 100.691406 301.472656 C 104.398438 304.351562 109.757812 303.675781 112.640625 299.96875 C 114.035156 298.171875 114.644531 295.9375 114.363281 293.683594 C 114.078125 291.425781 112.929688 289.414062 111.132812 288.019531 C 109.707031 286.910156 108 286.292969 106.203125 286.234375 C 105.886719 286.222656 105.640625 285.960938 105.648438 285.644531 C 105.660156 285.328125 105.921875 285.085938 106.238281 285.09375 C 108.28125 285.160156 110.214844 285.859375 111.835938 287.117188 C 113.871094 288.699219 115.171875 290.980469 115.496094 293.539062 C 115.816406 296.097656 115.125 298.628906 113.542969 300.667969 C 111.640625 303.117188 108.785156 304.402344 105.902344 304.402344 " fill-opacity="1" fill-rule="nonzero"/><path fill="#f9dc5c" d="M 295.511719 80.632812 C 295.410156 80.632812 295.304688 80.605469 295.210938 80.546875 C 294.941406 80.375 294.863281 80.027344 295.03125 79.757812 L 305.945312 62.390625 C 306.113281 62.125 306.464844 62.046875 306.734375 62.210938 C 307 62.378906 307.082031 62.734375 306.914062 63 L 295.996094 80.367188 C 295.886719 80.539062 295.703125 80.632812 295.511719 80.632812 " fill-opacity="1" fill-rule="nonzero"/><path fill="#f9dc5c" d="M 294.519531 94.523438 C 294.359375 94.523438 294.195312 94.453125 294.082031 94.316406 C 293.878906 94.074219 293.917969 93.714844 294.160156 93.511719 L 322.578125 70.085938 C 322.820312 69.886719 323.183594 69.921875 323.382812 70.164062 C 323.585938 70.40625 323.546875 70.765625 323.304688 70.96875 L 294.882812 94.394531 C 294.777344 94.480469 294.652344 94.523438 294.519531 94.523438 " fill-opacity="1" fill-rule="nonzero"/><path fill="#f9dc5c" d="M 298.488281 99.984375 C 298.253906 99.984375 298.03125 99.835938 297.949219 99.601562 C 297.847656 99.304688 298.003906 98.976562 298.300781 98.875 L 312.691406 93.914062 C 312.988281 93.808594 313.316406 93.96875 313.417969 94.265625 C 313.519531 94.566406 313.363281 94.886719 313.0625 94.992188 L 298.675781 99.953125 C 298.613281 99.972656 298.550781 99.984375 298.488281 99.984375 " fill-opacity="1" fill-rule="nonzero"/><path fill="#011936" d="M 135.003906 97.734375 C 133.671875 97.734375 132.589844 98.816406 132.589844 100.148438 C 132.589844 101.480469 133.671875 102.5625 135.003906 102.5625 C 136.335938 102.5625 137.417969 101.480469 137.417969 100.148438 C 137.417969 98.816406 136.335938 97.734375 135.003906 97.734375 Z M 135.003906 103.703125 C 133.042969 103.703125 131.449219 102.109375 131.449219 100.148438 C 131.449219 98.1875 133.042969 96.589844 135.003906 96.589844 C 136.964844 96.589844 138.5625 98.1875 138.5625 100.148438 C 138.5625 102.109375 136.964844 103.703125 135.003906 103.703125 " fill-opacity="1" fill-rule="nonzero"/><path fill="#011936" d="M 149.515625 110.382812 C 148.695312 110.382812 148.03125 111.050781 148.03125 111.871094 C 148.03125 112.6875 148.695312 113.355469 149.515625 113.355469 C 150.335938 113.355469 151.003906 112.6875 151.003906 111.871094 C 151.003906 111.050781 150.335938 110.382812 149.515625 110.382812 Z M 149.515625 114.5 C 148.066406 114.5 146.886719 113.320312 146.886719 111.871094 C 146.886719 110.421875 148.066406 109.242188 149.515625 109.242188 C 150.964844 109.242188 152.144531 110.421875 152.144531 111.871094 C 152.144531 113.320312 150.964844 114.5 149.515625 114.5 " fill-opacity="1" fill-rule="nonzero"/><path fill="#011936" d="M 70.539062 261.871094 C 65.582031 261.871094 61.332031 258.082031 60.859375 253.046875 C 60.359375 247.707031 64.296875 242.953125 69.636719 242.453125 C 74.980469 241.953125 79.734375 245.890625 80.234375 251.230469 C 80.375 252.734375 80.175781 254.203125 79.640625 255.601562 C 79.53125 255.894531 79.199219 256.042969 78.90625 255.929688 C 78.609375 255.816406 78.460938 255.488281 78.574219 255.195312 C 79.046875 253.960938 79.222656 252.664062 79.097656 251.339844 C 78.65625 246.621094 74.453125 243.148438 69.746094 243.589844 C 65.03125 244.03125 61.554688 248.226562 61.996094 252.941406 C 62.4375 257.65625 66.636719 261.132812 71.347656 260.691406 C 72.503906 260.582031 73.601562 260.25 74.613281 259.707031 C 74.890625 259.558594 75.238281 259.660156 75.386719 259.9375 C 75.535156 260.214844 75.433594 260.5625 75.15625 260.710938 C 74.007812 261.328125 72.761719 261.703125 71.453125 261.828125 C 71.148438 261.855469 70.84375 261.871094 70.539062 261.871094 " fill-opacity="1" fill-rule="nonzero"/><path fill="#f9dc5c" d="M 92.828125 230.898438 C 92.828125 228.429688 94.828125 226.429688 97.296875 226.429688 C 99.761719 226.429688 101.761719 228.429688 101.761719 230.898438 C 101.761719 233.363281 99.761719 235.363281 97.296875 235.363281 C 94.828125 235.363281 92.828125 233.363281 92.828125 230.898438 " fill-opacity="1" fill-rule="nonzero"/><path fill="#f9dc5c" d="M 246.890625 339.058594 C 246.890625 336.59375 248.890625 334.59375 251.355469 334.59375 C 253.820312 334.59375 255.820312 336.59375 255.820312 339.058594 C 255.820312 341.527344 253.820312 343.527344 251.355469 343.527344 C 248.890625 343.527344 246.890625 341.527344 246.890625 339.058594 " fill-opacity="1" fill-rule="nonzero"/><path fill="#011936" d="M 129.558594 77.792969 C 129.414062 77.792969 129.265625 77.738281 129.15625 77.625 L 127.386719 75.855469 C 127.164062 75.636719 127.164062 75.273438 127.386719 75.050781 C 127.609375 74.828125 127.972656 74.828125 128.195312 75.050781 L 129.964844 76.816406 C 130.1875 77.042969 130.1875 77.402344 129.964844 77.625 C 129.851562 77.738281 129.707031 77.792969 129.558594 77.792969 " fill-opacity="1" fill-rule="nonzero"/><path fill="#011936" d="M 135.746094 83.984375 C 135.601562 83.984375 135.457031 83.929688 135.34375 83.816406 L 133.574219 82.046875 C 133.351562 81.824219 133.351562 81.464844 133.574219 81.238281 C 133.796875 81.015625 134.160156 81.015625 134.382812 81.238281 L 136.152344 83.011719 C 136.375 83.230469 136.375 83.59375 136.152344 83.816406 C 136.039062 83.929688 135.894531 83.984375 135.746094 83.984375 " fill-opacity="1" fill-rule="nonzero"/><path fill="#011936" d="M 127.789062 83.984375 C 127.644531 83.984375 127.5 83.929688 127.386719 83.816406 C 127.164062 83.59375 127.164062 83.230469 127.386719 83.011719 L 129.15625 81.238281 C 129.378906 81.015625 129.738281 81.015625 129.960938 81.238281 C 130.183594 81.464844 130.183594 81.824219 129.960938 82.046875 L 128.195312 83.816406 C 128.082031 83.929688 127.9375 83.984375 127.789062 83.984375 " fill-opacity="1" fill-rule="nonzero"/><path fill="#011936" d="M 133.980469 77.792969 C 133.832031 77.792969 133.6875 77.738281 133.578125 77.625 C 133.351562 77.402344 133.351562 77.039062 133.578125 76.816406 L 135.34375 75.050781 C 135.566406 74.828125 135.929688 74.828125 136.152344 75.050781 C 136.375 75.273438 136.375 75.636719 136.152344 75.855469 L 134.382812 77.625 C 134.273438 77.738281 134.125 77.792969 133.980469 77.792969 " fill-opacity="1" fill-rule="nonzero"/><path fill="#f9dc5c" d="M 158.398438 138.753906 C 158.382812 138.753906 158.371094 138.753906 158.359375 138.753906 C 156.863281 138.652344 155.335938 138.59375 153.828125 138.578125 C 153.511719 138.574219 153.257812 138.3125 153.261719 138 C 153.265625 137.683594 153.523438 137.417969 153.839844 137.433594 C 155.371094 137.453125 156.917969 137.511719 158.433594 137.617188 C 158.75 137.636719 158.988281 137.910156 158.96875 138.222656 C 158.945312 138.523438 158.695312 138.753906 158.398438 138.753906 Z M 144.710938 138.96875 C 144.421875 138.96875 144.171875 138.75 144.140625 138.453125 C 144.113281 138.140625 144.34375 137.859375 144.65625 137.832031 C 146.183594 137.683594 147.726562 137.574219 149.242188 137.507812 C 149.558594 137.492188 149.824219 137.738281 149.839844 138.054688 C 149.851562 138.367188 149.609375 138.636719 149.292969 138.648438 C 147.796875 138.714844 146.273438 138.820312 144.765625 138.96875 C 144.746094 138.96875 144.730469 138.96875 144.710938 138.96875 Z M 167.453125 139.894531 C 167.417969 139.894531 167.386719 139.890625 167.351562 139.886719 C 165.871094 139.613281 164.367188 139.378906 162.871094 139.191406 C 162.558594 139.152344 162.335938 138.867188 162.375 138.550781 C 162.414062 138.238281 162.699219 138.019531 163.011719 138.054688 C 164.527344 138.246094 166.058594 138.484375 167.558594 138.761719 C 167.867188 138.816406 168.074219 139.113281 168.015625 139.425781 C 167.964844 139.699219 167.722656 139.894531 167.453125 139.894531 Z M 135.675781 140.3125 C 135.410156 140.3125 135.171875 140.125 135.117188 139.855469 C 135.054688 139.542969 135.257812 139.246094 135.566406 139.183594 C 137.070312 138.882812 138.59375 138.617188 140.09375 138.390625 C 140.40625 138.347656 140.695312 138.5625 140.742188 138.871094 C 140.789062 139.183594 140.574219 139.476562 140.261719 139.523438 C 138.78125 139.742188 137.277344 140.003906 135.789062 140.300781 C 135.75 140.308594 135.714844 140.3125 135.675781 140.3125 Z M 176.320312 142.066406 C 176.265625 142.066406 176.210938 142.058594 176.15625 142.039062 C 174.714844 141.601562 173.242188 141.191406 171.78125 140.835938 C 171.476562 140.757812 171.289062 140.453125 171.363281 140.144531 C 171.4375 139.839844 171.75 139.652344 172.054688 139.726562 C 173.535156 140.089844 175.027344 140.5 176.488281 140.949219 C 176.789062 141.042969 176.960938 141.359375 176.867188 141.660156 C 176.792969 141.90625 176.566406 142.066406 176.320312 142.066406 Z M 182.882812 144.390625 C 182.8125 144.390625 182.738281 144.378906 182.671875 144.347656 C 181.9375 144.054688 181.1875 143.765625 180.453125 143.492188 C 180.15625 143.382812 180.003906 143.054688 180.113281 142.757812 C 180.222656 142.464844 180.550781 142.3125 180.847656 142.421875 C 181.59375 142.699219 182.351562 142.988281 183.097656 143.289062 C 183.390625 143.40625 183.53125 143.738281 183.414062 144.03125 C 183.324219 144.257812 183.109375 144.390625 182.882812 144.390625 " fill-opacity="1" fill-rule="nonzero"/><path fill="#f9dc5c" d="M 103.519531 152.554688 C 103.320312 152.554688 103.128906 152.453125 103.023438 152.269531 C 102.867188 151.996094 102.960938 151.648438 103.234375 151.488281 L 103.664062 151.242188 C 103.9375 151.085938 104.285156 151.179688 104.441406 151.453125 C 104.597656 151.726562 104.503906 152.078125 104.230469 152.230469 L 103.804688 152.476562 C 103.714844 152.53125 103.617188 152.554688 103.519531 152.554688 Z M 95.804688 157.449219 C 95.625 157.449219 95.445312 157.363281 95.335938 157.203125 C 95.15625 156.945312 95.21875 156.589844 95.480469 156.410156 C 96.734375 155.535156 98.019531 154.683594 99.304688 153.867188 C 99.570312 153.699219 99.925781 153.777344 100.09375 154.042969 C 100.261719 154.3125 100.183594 154.664062 99.917969 154.832031 C 98.648438 155.636719 97.375 156.484375 96.132812 157.347656 C 96.03125 157.414062 95.917969 157.449219 95.804688 157.449219 Z M 88.523438 162.960938 C 88.355469 162.960938 88.195312 162.890625 88.082031 162.753906 C 87.878906 162.511719 87.914062 162.148438 88.160156 161.949219 C 89.335938 160.980469 90.546875 160.023438 91.761719 159.105469 C 92.011719 158.914062 92.371094 158.964844 92.5625 159.214844 C 92.753906 159.464844 92.703125 159.824219 92.453125 160.015625 C 91.25 160.925781 90.050781 161.871094 88.886719 162.832031 C 88.777344 162.917969 88.648438 162.960938 88.523438 162.960938 Z M 81.710938 169.050781 C 81.5625 169.050781 81.414062 168.992188 81.300781 168.875 C 81.082031 168.648438 81.085938 168.289062 81.3125 168.070312 C 82.40625 167.007812 83.539062 165.953125 84.675781 164.941406 C 84.910156 164.730469 85.269531 164.75 85.480469 164.984375 C 85.691406 165.222656 85.671875 165.582031 85.433594 165.792969 C 84.3125 166.796875 83.191406 167.839844 82.109375 168.886719 C 81.996094 168.996094 81.855469 169.050781 81.710938 169.050781 Z M 75.40625 175.664062 C 75.273438 175.664062 75.140625 175.617188 75.03125 175.519531 C 74.792969 175.3125 74.769531 174.949219 74.980469 174.714844 C 75.988281 173.570312 77.03125 172.429688 78.078125 171.328125 C 78.296875 171.101562 78.660156 171.089844 78.886719 171.308594 C 79.117188 171.527344 79.125 171.886719 78.90625 172.117188 C 77.867188 173.207031 76.835938 174.335938 75.835938 175.46875 C 75.722656 175.597656 75.566406 175.664062 75.40625 175.664062 Z M 69.648438 182.757812 C 69.53125 182.757812 69.410156 182.71875 69.308594 182.640625 C 69.054688 182.453125 69.003906 182.09375 69.191406 181.84375 C 70.105469 180.621094 71.054688 179.402344 72.015625 178.222656 C 72.214844 177.976562 72.574219 177.941406 72.820312 178.136719 C 73.0625 178.335938 73.101562 178.699219 72.902344 178.941406 C 71.953125 180.113281 71.011719 181.316406 70.105469 182.527344 C 69.996094 182.679688 69.824219 182.757812 69.648438 182.757812 " fill-opacity="1" fill-rule="nonzero"/><path fill="#f9dc5c" d="M 256.300781 217.425781 C 256.292969 217.425781 256.285156 217.425781 256.277344 217.425781 C 255.960938 217.410156 255.71875 217.144531 255.730469 216.828125 C 255.859375 213.933594 255.992188 212.261719 255.992188 212.246094 C 256.019531 211.929688 256.296875 211.695312 256.609375 211.722656 C 256.921875 211.746094 257.160156 212.023438 257.132812 212.335938 C 257.128906 212.351562 257 214.007812 256.871094 216.878906 C 256.859375 217.1875 256.605469 217.425781 256.300781 217.425781 Z M 256.078125 226.5625 C 256.074219 226.5625 256.070312 226.5625 256.070312 226.5625 C 255.753906 226.558594 255.5 226.300781 255.503906 225.988281 C 255.511719 224.441406 255.539062 222.902344 255.574219 221.40625 C 255.582031 221.097656 255.835938 220.851562 256.148438 220.851562 C 256.152344 220.851562 256.152344 220.851562 256.160156 220.851562 C 256.472656 220.859375 256.726562 221.121094 256.71875 221.4375 C 256.679688 222.921875 256.65625 224.457031 256.644531 225.996094 C 256.644531 226.308594 256.390625 226.5625 256.078125 226.5625 Z M 47.855469 227.199219 C 47.808594 227.199219 47.757812 227.191406 47.707031 227.175781 C 47.402344 227.097656 47.222656 226.78125 47.304688 226.476562 C 47.382812 226.179688 47.464844 225.878906 47.546875 225.582031 C 47.632812 225.277344 47.945312 225.097656 48.25 225.183594 C 48.554688 225.265625 48.730469 225.582031 48.648438 225.886719 C 48.566406 226.183594 48.488281 226.476562 48.410156 226.773438 C 48.339844 227.027344 48.109375 227.199219 47.855469 227.199219 Z M 256.164062 235.710938 C 255.855469 235.710938 255.597656 235.464844 255.589844 235.15625 C 255.550781 233.632812 255.523438 232.089844 255.511719 230.570312 C 255.507812 230.253906 255.761719 229.996094 256.078125 229.992188 C 256.078125 229.992188 256.078125 229.992188 256.082031 229.992188 C 256.394531 229.992188 256.648438 230.246094 256.652344 230.558594 C 256.664062 232.074219 256.695312 233.609375 256.730469 235.125 C 256.742188 235.441406 256.492188 235.703125 256.175781 235.710938 C 256.171875 235.710938 256.167969 235.710938 256.164062 235.710938 Z M 45.867188 236.109375 C 45.832031 236.109375 45.800781 236.105469 45.765625 236.101562 C 45.457031 236.042969 45.25 235.746094 45.304688 235.4375 C 45.574219 233.945312 45.878906 232.429688 46.210938 230.9375 C 46.28125 230.628906 46.585938 230.433594 46.894531 230.503906 C 47.203125 230.570312 47.394531 230.875 47.328125 231.183594 C 46.996094 232.664062 46.695312 234.164062 46.429688 235.636719 C 46.378906 235.914062 46.136719 236.109375 45.867188 236.109375 Z M 256.550781 244.855469 C 256.25 244.855469 256 244.621094 255.980469 244.316406 C 255.890625 242.808594 255.8125 241.269531 255.746094 239.738281 C 255.734375 239.421875 255.976562 239.15625 256.292969 239.144531 C 256.613281 239.128906 256.875 239.375 256.886719 239.6875 C 256.953125 241.214844 257.03125 242.75 257.121094 244.25 C 257.140625 244.5625 256.898438 244.835938 256.582031 244.855469 C 256.574219 244.855469 256.5625 244.855469 256.550781 244.855469 Z M 44.644531 245.160156 C 44.628906 245.160156 44.609375 245.15625 44.59375 245.15625 C 44.277344 245.128906 44.046875 244.851562 44.074219 244.535156 C 44.210938 243.023438 44.386719 241.488281 44.589844 239.972656 C 44.632812 239.660156 44.917969 239.4375 45.230469 239.484375 C 45.542969 239.527344 45.765625 239.8125 45.722656 240.125 C 45.519531 241.625 45.347656 243.144531 45.214844 244.640625 C 45.1875 244.933594 44.9375 245.160156 44.644531 245.160156 Z M 257.25 253.976562 C 256.960938 253.976562 256.710938 253.753906 256.683594 253.460938 C 256.539062 251.949219 256.40625 250.410156 256.292969 248.890625 C 256.269531 248.578125 256.503906 248.300781 256.816406 248.277344 C 257.125 248.253906 257.40625 248.488281 257.429688 248.804688 C 257.546875 250.316406 257.675781 251.847656 257.820312 253.351562 C 257.851562 253.664062 257.621094 253.945312 257.304688 253.972656 C 257.289062 253.976562 257.269531 253.976562 257.25 253.976562 Z M 44.242188 254.28125 C 43.925781 254.28125 43.671875 254.027344 43.671875 253.710938 L 43.671875 253.472656 C 43.671875 252.035156 43.703125 250.570312 43.765625 249.117188 C 43.78125 248.804688 44.046875 248.558594 44.363281 248.574219 C 44.679688 248.585938 44.921875 248.851562 44.90625 249.167969 C 44.84375 250.601562 44.8125 252.050781 44.8125 253.472656 L 44.8125 253.707031 C 44.8125 254.023438 44.558594 254.28125 44.242188 254.28125 Z M 258.292969 263.0625 C 258.011719 263.0625 257.765625 262.855469 257.730469 262.570312 C 257.527344 261.078125 257.335938 259.546875 257.160156 258.019531 C 257.125 257.707031 257.351562 257.421875 257.664062 257.386719 C 257.976562 257.351562 258.261719 257.578125 258.296875 257.890625 C 258.46875 259.410156 258.660156 260.933594 258.859375 262.417969 C 258.902344 262.730469 258.683594 263.019531 258.371094 263.058594 C 258.34375 263.0625 258.316406 263.0625 258.292969 263.0625 Z M 44.699219 263.398438 C 44.40625 263.398438 44.160156 263.179688 44.128906 262.886719 C 43.980469 261.371094 43.867188 259.828125 43.792969 258.304688 C 43.777344 257.988281 44.019531 257.722656 44.332031 257.707031 C 44.648438 257.683594 44.917969 257.933594 44.933594 258.246094 C 45.007812 259.753906 45.121094 261.277344 45.265625 262.773438 C 45.296875 263.085938 45.070312 263.367188 44.753906 263.398438 C 44.734375 263.398438 44.71875 263.398438 44.699219 263.398438 Z M 259.710938 272.101562 C 259.4375 272.101562 259.199219 271.90625 259.148438 271.632812 C 258.878906 270.152344 258.628906 268.632812 258.386719 267.109375 C 258.339844 266.796875 258.554688 266.503906 258.863281 266.457031 C 259.179688 266.40625 259.46875 266.617188 259.515625 266.929688 C 259.753906 268.449219 260.007812 269.960938 260.273438 271.429688 C 260.328125 271.738281 260.121094 272.035156 259.808594 272.09375 C 259.777344 272.097656 259.742188 272.101562 259.710938 272.101562 Z M 46.035156 272.429688 C 45.769531 272.429688 45.53125 272.242188 45.476562 271.96875 C 45.179688 270.476562 44.914062 268.957031 44.691406 267.445312 C 44.644531 267.132812 44.859375 266.839844 45.171875 266.796875 C 45.484375 266.75 45.777344 266.964844 45.820312 267.277344 C 46.042969 268.769531 46.304688 270.273438 46.59375 271.75 C 46.65625 272.058594 46.457031 272.359375 46.148438 272.417969 C 46.109375 272.429688 46.070312 272.429688 46.035156 272.429688 Z M 261.546875 281.050781 C 261.289062 281.050781 261.054688 280.875 260.992188 280.609375 C 260.652344 279.148438 260.324219 277.640625 260.015625 276.136719 C 259.949219 275.824219 260.148438 275.523438 260.460938 275.460938 C 260.769531 275.398438 261.070312 275.597656 261.132812 275.90625 C 261.441406 277.402344 261.765625 278.898438 262.105469 280.351562 C 262.175781 280.660156 261.984375 280.964844 261.679688 281.039062 C 261.632812 281.046875 261.59375 281.050781 261.546875 281.050781 Z M 48.25 281.289062 C 48.007812 281.289062 47.78125 281.128906 47.707031 280.878906 C 47.261719 279.421875 46.851562 277.929688 46.480469 276.453125 C 46.402344 276.148438 46.589844 275.835938 46.894531 275.761719 C 47.203125 275.683594 47.511719 275.871094 47.589844 276.175781 C 47.953125 277.636719 48.359375 279.109375 48.796875 280.550781 C 48.890625 280.851562 48.71875 281.171875 48.417969 281.261719 C 48.363281 281.277344 48.304688 281.289062 48.25 281.289062 Z M 307.089844 283.972656 C 306.792969 283.972656 306.546875 283.75 306.519531 283.453125 C 306.488281 283.140625 306.722656 282.859375 307.035156 282.832031 C 308.609375 282.6875 310.164062 282.609375 311.644531 282.605469 C 311.648438 282.605469 311.648438 282.605469 311.648438 282.605469 C 311.964844 282.605469 312.21875 282.859375 312.21875 283.171875 C 312.222656 283.488281 311.964844 283.746094 311.652344 283.746094 C 310.203125 283.75 308.683594 283.828125 307.140625 283.96875 C 307.121094 283.972656 307.105469 283.972656 307.089844 283.972656 Z M 320.699219 284.738281 C 320.660156 284.738281 320.613281 284.730469 320.566406 284.71875 C 319.167969 284.378906 317.679688 284.128906 316.144531 283.964844 C 315.832031 283.933594 315.605469 283.652344 315.636719 283.339844 C 315.671875 283.023438 315.957031 282.796875 316.265625 282.828125 C 317.851562 282.996094 319.386719 283.257812 320.835938 283.609375 C 321.144531 283.683594 321.332031 283.992188 321.257812 284.300781 C 321.195312 284.5625 320.960938 284.738281 320.699219 284.738281 Z M 298.199219 285.898438 C 297.964844 285.898438 297.746094 285.753906 297.660156 285.523438 C 297.554688 285.226562 297.703125 284.898438 298.003906 284.789062 C 299.578125 284.210938 301.074219 283.769531 302.445312 283.472656 C 302.753906 283.402344 303.058594 283.601562 303.125 283.910156 C 303.191406 284.21875 302.996094 284.523438 302.6875 284.585938 C 301.367188 284.871094 299.921875 285.300781 298.394531 285.863281 C 298.328125 285.886719 298.265625 285.898438 298.199219 285.898438 Z M 329.0625 288.285156 C 328.953125 288.285156 328.847656 288.253906 328.75 288.195312 C 327.53125 287.394531 326.207031 286.691406 324.816406 286.109375 C 324.523438 285.984375 324.390625 285.648438 324.511719 285.359375 C 324.632812 285.066406 324.96875 284.929688 325.257812 285.054688 C 326.714844 285.664062 328.097656 286.398438 329.375 287.238281 C 329.640625 287.414062 329.714844 287.765625 329.539062 288.027344 C 329.429688 288.195312 329.25 288.285156 329.0625 288.285156 Z M 289.890625 289.695312 C 289.6875 289.695312 289.488281 289.585938 289.386719 289.390625 C 289.238281 289.113281 289.347656 288.769531 289.625 288.621094 C 291.078125 287.855469 292.460938 287.164062 293.746094 286.570312 C 294.03125 286.4375 294.371094 286.5625 294.5 286.847656 C 294.636719 287.132812 294.511719 287.472656 294.226562 287.605469 C 292.960938 288.191406 291.589844 288.875 290.15625 289.632812 C 290.074219 289.675781 289.980469 289.695312 289.890625 289.695312 Z M 51.328125 289.882812 C 51.105469 289.882812 50.890625 289.75 50.800781 289.53125 C 50.214844 288.117188 49.660156 286.675781 49.148438 285.242188 C 49.039062 284.945312 49.195312 284.621094 49.492188 284.511719 C 49.789062 284.40625 50.117188 284.5625 50.222656 284.859375 C 50.726562 286.273438 51.277344 287.699219 51.855469 289.09375 C 51.976562 289.386719 51.839844 289.71875 51.546875 289.839844 C 51.476562 289.867188 51.402344 289.882812 51.328125 289.882812 Z M 263.875 289.894531 C 263.628906 289.894531 263.398438 289.734375 263.328125 289.488281 C 262.898438 288.042969 262.484375 286.554688 262.09375 285.0625 C 262.011719 284.757812 262.195312 284.445312 262.5 284.367188 C 262.804688 284.285156 263.117188 284.464844 263.195312 284.773438 C 263.585938 286.253906 264 287.730469 264.421875 289.164062 C 264.511719 289.464844 264.339844 289.78125 264.035156 289.871094 C 263.984375 289.886719 263.925781 289.894531 263.875 289.894531 Z M 281.953125 294.226562 C 281.757812 294.226562 281.570312 294.128906 281.460938 293.953125 C 281.296875 293.683594 281.386719 293.332031 281.65625 293.167969 C 283.070312 292.316406 284.363281 291.554688 285.609375 290.839844 C 285.882812 290.683594 286.226562 290.777344 286.386719 291.050781 C 286.542969 291.324219 286.449219 291.675781 286.175781 291.832031 C 284.9375 292.539062 283.648438 293.296875 282.246094 294.148438 C 282.152344 294.203125 282.050781 294.226562 281.953125 294.226562 Z M 335.550781 294.625 C 335.371094 294.625 335.195312 294.539062 335.085938 294.378906 C 334.222656 293.148438 333.257812 292.003906 332.214844 290.980469 C 331.988281 290.761719 331.984375 290.398438 332.203125 290.171875 C 332.425781 289.945312 332.785156 289.945312 333.011719 290.164062 C 334.105469 291.234375 335.121094 292.433594 336.019531 293.726562 C 336.199219 293.984375 336.136719 294.339844 335.878906 294.519531 C 335.78125 294.589844 335.664062 294.625 335.550781 294.625 Z M 55.230469 298.140625 C 55.023438 298.140625 54.828125 298.03125 54.722656 297.835938 C 54.003906 296.488281 53.3125 295.105469 52.660156 293.730469 C 52.527344 293.445312 52.648438 293.105469 52.933594 292.96875 C 53.21875 292.835938 53.558594 292.957031 53.695312 293.242188 C 54.335938 294.601562 55.023438 295.964844 55.730469 297.300781 C 55.878906 297.578125 55.773438 297.921875 55.496094 298.070312 C 55.410156 298.117188 55.320312 298.140625 55.230469 298.140625 Z M 266.765625 298.578125 C 266.535156 298.578125 266.316406 298.4375 266.230469 298.203125 C 265.707031 296.804688 265.191406 295.347656 264.703125 293.875 C 264.601562 293.574219 264.765625 293.253906 265.066406 293.152344 C 265.367188 293.050781 265.6875 293.214844 265.785156 293.515625 C 266.269531 294.972656 266.78125 296.417969 267.300781 297.804688 C 267.414062 298.101562 267.261719 298.429688 266.964844 298.539062 C 266.902344 298.566406 266.832031 298.578125 266.765625 298.578125 Z M 274.1875 299.0625 C 273.996094 299.0625 273.816406 298.96875 273.707031 298.796875 C 273.535156 298.53125 273.617188 298.179688 273.878906 298.011719 C 275.195312 297.171875 276.488281 296.355469 277.75 295.566406 C 278.019531 295.398438 278.371094 295.480469 278.539062 295.75 C 278.707031 296.015625 278.625 296.371094 278.355469 296.535156 C 277.09375 297.324219 275.808594 298.136719 274.492188 298.972656 C 274.398438 299.035156 274.292969 299.0625 274.1875 299.0625 Z M 339.492188 302.828125 C 339.25 302.828125 339.027344 302.671875 338.949219 302.425781 C 338.488281 300.960938 337.945312 299.554688 337.320312 298.246094 C 337.1875 297.964844 337.308594 297.621094 337.59375 297.488281 C 337.878906 297.351562 338.21875 297.472656 338.355469 297.757812 C 339 299.113281 339.566406 300.570312 340.039062 302.085938 C 340.132812 302.386719 339.964844 302.707031 339.664062 302.800781 C 339.605469 302.820312 339.550781 302.828125 339.492188 302.828125 Z M 59.890625 305.96875 C 59.707031 305.96875 59.523438 305.878906 59.414062 305.710938 C 58.574219 304.441406 57.753906 303.136719 56.976562 301.828125 C 56.8125 301.558594 56.902344 301.207031 57.175781 301.046875 C 57.445312 300.886719 57.796875 300.972656 57.957031 301.246094 C 58.726562 302.535156 59.535156 303.824219 60.367188 305.082031 C 60.542969 305.34375 60.46875 305.699219 60.207031 305.875 C 60.109375 305.9375 60 305.96875 59.890625 305.96875 Z M 270.316406 307 C 270.105469 307 269.898438 306.878906 269.800781 306.671875 C 269.242188 305.492188 268.691406 304.273438 268.164062 303.039062 C 267.710938 303.328125 267.261719 303.621094 266.804688 303.917969 C 266.539062 304.085938 266.1875 304.011719 266.011719 303.746094 C 265.84375 303.480469 265.921875 303.128906 266.183594 302.957031 C 267.488281 302.117188 268.769531 301.289062 270.027344 300.476562 C 270.292969 300.304688 270.644531 300.382812 270.816406 300.648438 C 270.988281 300.914062 270.914062 301.265625 270.644531 301.4375 C 270.148438 301.757812 269.644531 302.082031 269.136719 302.410156 C 269.683594 303.691406 270.253906 304.960938 270.832031 306.183594 C 270.964844 306.464844 270.84375 306.808594 270.5625 306.941406 C 270.480469 306.980469 270.398438 307 270.316406 307 Z M 258.804688 308.957031 C 258.617188 308.957031 258.429688 308.863281 258.324219 308.691406 C 258.152344 308.425781 258.234375 308.074219 258.496094 307.902344 C 259.796875 307.074219 261.082031 306.246094 262.34375 305.433594 C 262.609375 305.265625 262.960938 305.339844 263.132812 305.605469 C 263.304688 305.871094 263.226562 306.222656 262.960938 306.394531 C 261.699219 307.210938 260.414062 308.035156 259.113281 308.867188 C 259.019531 308.925781 258.910156 308.957031 258.804688 308.957031 Z M 341.207031 311.785156 C 340.914062 311.785156 340.664062 311.558594 340.636719 311.261719 C 340.503906 309.726562 340.296875 308.222656 340.027344 306.792969 C 339.972656 306.484375 340.171875 306.183594 340.480469 306.128906 C 340.792969 306.070312 341.09375 306.273438 341.152344 306.582031 C 341.425781 308.046875 341.636719 309.589844 341.777344 311.164062 C 341.804688 311.476562 341.570312 311.753906 341.257812 311.78125 C 341.242188 311.78125 341.222656 311.785156 341.207031 311.785156 Z M 65.269531 313.332031 C 65.101562 313.332031 64.9375 313.261719 64.824219 313.121094 C 63.867188 311.929688 62.929688 310.703125 62.03125 309.480469 C 61.847656 309.222656 61.902344 308.867188 62.15625 308.679688 C 62.410156 308.496094 62.769531 308.550781 62.953125 308.804688 C 63.839844 310.019531 64.769531 311.230469 65.714844 312.402344 C 65.910156 312.648438 65.871094 313.011719 65.625 313.207031 C 65.519531 313.292969 65.394531 313.332031 65.269531 313.332031 Z M 251.074219 313.839844 C 250.882812 313.839844 250.699219 313.742188 250.589844 313.570312 C 250.421875 313.300781 250.503906 312.949219 250.773438 312.78125 C 252.078125 311.96875 253.371094 311.160156 254.640625 310.355469 C 254.90625 310.1875 255.261719 310.265625 255.429688 310.53125 C 255.597656 310.800781 255.519531 311.152344 255.253906 311.320312 C 253.976562 312.125 252.683594 312.9375 251.375 313.753906 C 251.28125 313.808594 251.179688 313.839844 251.074219 313.839844 Z M 274.636719 315.042969 C 274.445312 315.042969 274.253906 314.949219 274.148438 314.769531 C 273.367188 313.488281 272.601562 312.144531 271.871094 310.777344 C 271.71875 310.5 271.824219 310.152344 272.101562 310.003906 C 272.378906 309.855469 272.726562 309.960938 272.875 310.234375 C 273.601562 311.585938 274.355469 312.914062 275.125 314.175781 C 275.289062 314.449219 275.203125 314.796875 274.933594 314.960938 C 274.839844 315.019531 274.738281 315.042969 274.636719 315.042969 Z M 243.269531 318.601562 C 243.074219 318.601562 242.886719 318.5 242.777344 318.320312 C 242.617188 318.050781 242.707031 317.699219 242.976562 317.539062 C 244.296875 316.75 245.597656 315.964844 246.886719 315.179688 C 247.15625 315.011719 247.507812 315.097656 247.671875 315.367188 C 247.832031 315.636719 247.75 315.988281 247.480469 316.152344 C 246.191406 316.941406 244.882812 317.730469 243.5625 318.519531 C 243.46875 318.574219 243.371094 318.601562 243.269531 318.601562 Z M 71.300781 320.179688 C 71.152344 320.179688 71 320.121094 70.890625 320.003906 C 69.832031 318.90625 68.785156 317.773438 67.777344 316.628906 C 67.570312 316.394531 67.59375 316.03125 67.828125 315.824219 C 68.066406 315.617188 68.425781 315.640625 68.636719 315.875 C 69.628906 317.003906 70.664062 318.128906 71.710938 319.210938 C 71.929688 319.441406 71.925781 319.800781 71.695312 320.019531 C 71.585938 320.128906 71.445312 320.179688 71.300781 320.179688 Z M 341.054688 320.894531 C 341.023438 320.894531 340.992188 320.890625 340.964844 320.886719 C 340.652344 320.839844 340.441406 320.546875 340.488281 320.234375 C 340.714844 318.816406 340.832031 317.316406 340.839844 315.773438 C 340.84375 315.457031 341.097656 315.207031 341.414062 315.207031 C 341.730469 315.207031 341.984375 315.464844 341.984375 315.777344 C 341.976562 317.378906 341.851562 318.9375 341.617188 320.414062 C 341.574219 320.695312 341.332031 320.894531 341.054688 320.894531 Z M 279.84375 322.542969 C 279.675781 322.542969 279.511719 322.46875 279.398438 322.328125 C 278.460938 321.152344 277.539062 319.90625 276.652344 318.632812 C 276.472656 318.371094 276.539062 318.015625 276.796875 317.835938 C 277.058594 317.65625 277.410156 317.71875 277.589844 317.980469 C 278.464844 319.238281 279.371094 320.460938 280.292969 321.613281 C 280.488281 321.863281 280.449219 322.21875 280.199219 322.417969 C 280.097656 322.5 279.972656 322.542969 279.84375 322.542969 Z M 235.367188 323.195312 C 235.167969 323.195312 234.972656 323.089844 234.871094 322.90625 C 234.714844 322.632812 234.8125 322.28125 235.085938 322.128906 C 236.375 321.398438 237.710938 320.636719 239.042969 319.855469 C 239.316406 319.699219 239.667969 319.789062 239.828125 320.0625 C 239.984375 320.335938 239.890625 320.683594 239.621094 320.84375 C 238.277344 321.625 236.941406 322.390625 235.648438 323.121094 C 235.558594 323.171875 235.464844 323.195312 235.367188 323.195312 Z M 77.921875 326.460938 C 77.789062 326.460938 77.65625 326.414062 77.546875 326.324219 C 76.394531 325.324219 75.253906 324.285156 74.148438 323.238281 C 73.917969 323.019531 73.910156 322.660156 74.128906 322.429688 C 74.34375 322.199219 74.707031 322.191406 74.933594 322.410156 C 76.027344 323.445312 77.15625 324.472656 78.296875 325.460938 C 78.535156 325.667969 78.558594 326.027344 78.355469 326.265625 C 78.242188 326.398438 78.082031 326.460938 77.921875 326.460938 Z M 227.351562 327.585938 C 227.144531 327.585938 226.945312 327.476562 226.84375 327.28125 C 226.699219 327.003906 226.804688 326.660156 227.082031 326.511719 C 228.410156 325.808594 229.761719 325.082031 231.097656 324.347656 C 231.378906 324.195312 231.722656 324.296875 231.875 324.574219 C 232.027344 324.851562 231.925781 325.195312 231.648438 325.347656 C 230.304688 326.085938 228.945312 326.816406 227.617188 327.519531 C 227.53125 327.566406 227.441406 327.585938 227.351562 327.585938 Z M 286.035156 329.242188 C 285.898438 329.242188 285.757812 329.191406 285.648438 329.089844 C 284.542969 328.066406 283.445312 326.964844 282.394531 325.824219 C 282.179688 325.59375 282.195312 325.230469 282.425781 325.019531 C 282.65625 324.804688 283.019531 324.820312 283.234375 325.050781 C 284.265625 326.167969 285.339844 327.246094 286.421875 328.253906 C 286.65625 328.46875 286.671875 328.828125 286.453125 329.058594 C 286.34375 329.183594 286.191406 329.242188 286.035156 329.242188 Z M 337.960938 329.421875 C 337.859375 329.421875 337.753906 329.398438 337.664062 329.339844 C 337.394531 329.171875 337.308594 328.824219 337.472656 328.554688 C 338.242188 327.304688 338.886719 325.957031 339.394531 324.550781 C 339.5 324.25 339.828125 324.097656 340.121094 324.207031 C 340.421875 324.308594 340.574219 324.636719 340.464844 324.933594 C 339.9375 326.417969 339.253906 327.835938 338.445312 329.152344 C 338.339844 329.328125 338.152344 329.421875 337.960938 329.421875 Z M 219.203125 331.730469 C 218.992188 331.730469 218.792969 331.613281 218.691406 331.410156 C 218.554688 331.128906 218.667969 330.785156 218.953125 330.648438 C 220.296875 329.992188 221.667969 329.308594 223.035156 328.613281 C 223.316406 328.46875 223.660156 328.582031 223.804688 328.863281 C 223.945312 329.140625 223.832031 329.488281 223.554688 329.628906 C 222.179688 330.328125 220.800781 331.015625 219.453125 331.671875 C 219.375 331.710938 219.289062 331.730469 219.203125 331.730469 Z M 85.070312 332.140625 C 84.953125 332.140625 84.835938 332.101562 84.734375 332.03125 C 83.5 331.136719 82.269531 330.203125 81.078125 329.253906 C 80.832031 329.058594 80.789062 328.699219 80.988281 328.453125 C 81.183594 328.207031 81.542969 328.164062 81.789062 328.359375 C 82.96875 329.296875 84.1875 330.21875 85.40625 331.105469 C 85.660156 331.292969 85.71875 331.648438 85.535156 331.90625 C 85.421875 332.058594 85.246094 332.140625 85.070312 332.140625 Z M 293.222656 334.84375 C 293.113281 334.84375 293.007812 334.8125 292.910156 334.75 C 291.632812 333.925781 290.371094 333.027344 289.15625 332.078125 C 288.90625 331.882812 288.863281 331.523438 289.058594 331.277344 C 289.25 331.027344 289.609375 330.984375 289.859375 331.175781 C 291.046875 332.105469 292.285156 332.984375 293.53125 333.789062 C 293.796875 333.960938 293.871094 334.316406 293.699219 334.582031 C 293.59375 334.75 293.40625 334.84375 293.222656 334.84375 Z M 210.921875 335.59375 C 210.703125 335.59375 210.492188 335.46875 210.398438 335.257812 C 210.273438 334.96875 210.402344 334.628906 210.691406 334.503906 C 212.058594 333.894531 213.457031 333.257812 214.835938 332.613281 C 215.125 332.480469 215.464844 332.601562 215.597656 332.890625 C 215.730469 333.175781 215.605469 333.515625 215.320312 333.648438 C 213.933594 334.296875 212.527344 334.933594 211.152344 335.546875 C 211.078125 335.578125 210.996094 335.59375 210.921875 335.59375 Z M 331.742188 336.035156 C 331.566406 336.035156 331.394531 335.953125 331.277344 335.796875 C 331.09375 335.542969 331.152344 335.183594 331.410156 335 C 332.640625 334.109375 333.769531 333.125 334.765625 332.074219 C 334.984375 331.84375 335.34375 331.835938 335.574219 332.050781 C 335.804688 332.269531 335.8125 332.628906 335.597656 332.859375 C 334.550781 333.960938 333.367188 334.996094 332.078125 335.925781 C 331.976562 336 331.859375 336.035156 331.742188 336.035156 Z M 92.683594 337.175781 C 92.585938 337.175781 92.484375 337.148438 92.390625 337.09375 C 91.085938 336.308594 89.78125 335.484375 88.507812 334.644531 C 88.246094 334.46875 88.171875 334.117188 88.347656 333.851562 C 88.519531 333.589844 88.875 333.515625 89.136719 333.691406 C 90.398438 334.523438 91.6875 335.339844 92.980469 336.113281 C 93.25 336.273438 93.335938 336.625 93.175781 336.898438 C 93.070312 337.074219 92.878906 337.175781 92.683594 337.175781 Z M 301.289062 339.074219 C 301.214844 339.074219 301.144531 339.058594 301.070312 339.03125 C 299.652344 338.445312 298.246094 337.785156 296.890625 337.078125 C 296.609375 336.929688 296.503906 336.585938 296.648438 336.304688 C 296.796875 336.023438 297.140625 335.917969 297.417969 336.066406 C 298.746094 336.757812 300.121094 337.402344 301.507812 337.972656 C 301.800781 338.09375 301.9375 338.425781 301.816406 338.71875 C 301.726562 338.9375 301.511719 339.074219 301.289062 339.074219 Z M 202.496094 339.136719 C 202.269531 339.136719 202.054688 339 201.96875 338.777344 C 201.851562 338.484375 201.996094 338.152344 202.289062 338.035156 C 203.683594 337.484375 205.101562 336.902344 206.503906 336.3125 C 206.796875 336.191406 207.132812 336.328125 207.253906 336.617188 C 207.378906 336.90625 207.238281 337.242188 206.949219 337.363281 C 205.539062 337.957031 204.109375 338.542969 202.707031 339.097656 C 202.640625 339.125 202.570312 339.136719 202.496094 339.136719 Z M 323.621094 340.148438 C 323.382812 340.148438 323.15625 339.996094 323.078125 339.757812 C 322.980469 339.457031 323.144531 339.132812 323.445312 339.035156 C 324.722656 338.613281 325.988281 338.101562 327.199219 337.507812 C 327.324219 337.449219 327.453125 337.382812 327.582031 337.320312 C 327.863281 337.175781 328.207031 337.289062 328.347656 337.570312 C 328.492188 337.855469 328.375 338.195312 328.097656 338.339844 C 327.964844 338.40625 327.832031 338.472656 327.699219 338.535156 C 326.441406 339.148438 325.128906 339.683594 323.800781 340.121094 C 323.742188 340.140625 323.679688 340.148438 323.621094 340.148438 Z M 310.089844 341.433594 C 310.0625 341.433594 310.042969 341.429688 310.015625 341.425781 C 308.488281 341.238281 306.953125 340.941406 305.457031 340.539062 C 305.152344 340.453125 304.972656 340.140625 305.054688 339.835938 C 305.136719 339.53125 305.449219 339.351562 305.753906 339.433594 C 307.199219 339.824219 308.679688 340.113281 310.15625 340.296875 C 310.46875 340.332031 310.691406 340.617188 310.652344 340.933594 C 310.617188 341.222656 310.371094 341.433594 310.089844 341.433594 Z M 100.707031 341.527344 C 100.625 341.527344 100.539062 341.511719 100.457031 341.46875 C 99.089844 340.804688 97.71875 340.097656 96.378906 339.371094 C 96.097656 339.21875 95.996094 338.871094 96.148438 338.59375 C 96.296875 338.320312 96.644531 338.214844 96.921875 338.363281 C 98.25 339.085938 99.605469 339.785156 100.957031 340.445312 C 101.242188 340.582031 101.359375 340.925781 101.222656 341.207031 C 101.121094 341.410156 100.917969 341.527344 100.707031 341.527344 Z M 314.644531 341.667969 C 314.335938 341.667969 314.082031 341.417969 314.074219 341.105469 C 314.066406 340.792969 314.320312 340.53125 314.632812 340.527344 C 316.132812 340.496094 317.632812 340.351562 319.097656 340.105469 C 319.402344 340.054688 319.699219 340.265625 319.753906 340.574219 C 319.804688 340.886719 319.597656 341.179688 319.285156 341.234375 C 317.769531 341.488281 316.207031 341.636719 314.660156 341.667969 C 314.652344 341.667969 314.648438 341.667969 314.644531 341.667969 Z M 193.933594 342.324219 C 193.695312 342.324219 193.476562 342.175781 193.390625 341.9375 C 193.289062 341.640625 193.449219 341.3125 193.746094 341.210938 C 195.164062 340.71875 196.605469 340.203125 198.035156 339.671875 C 198.328125 339.5625 198.660156 339.710938 198.769531 340.007812 C 198.875 340.304688 198.726562 340.632812 198.429688 340.742188 C 196.996094 341.277344 195.542969 341.796875 194.121094 342.289062 C 194.058594 342.3125 193.996094 342.324219 193.933594 342.324219 Z M 185.230469 345.109375 C 184.984375 345.109375 184.757812 344.949219 184.683594 344.699219 C 184.59375 344.394531 184.769531 344.078125 185.070312 343.988281 C 186.511719 343.566406 187.976562 343.117188 189.425781 342.652344 C 189.726562 342.558594 190.046875 342.722656 190.144531 343.023438 C 190.238281 343.324219 190.074219 343.644531 189.773438 343.738281 C 188.320312 344.207031 186.84375 344.660156 185.390625 345.085938 C 185.339844 345.101562 185.285156 345.109375 185.230469 345.109375 Z M 109.078125 345.167969 C 109.007812 345.167969 108.941406 345.15625 108.871094 345.128906 C 107.453125 344.585938 106.023438 344 104.625 343.394531 C 104.335938 343.269531 104.203125 342.933594 104.328125 342.644531 C 104.453125 342.355469 104.789062 342.21875 105.078125 342.347656 C 106.464844 342.949219 107.878906 343.527344 109.28125 344.066406 C 109.574219 344.175781 109.722656 344.507812 109.609375 344.800781 C 109.523438 345.027344 109.308594 345.167969 109.078125 345.167969 Z M 176.402344 347.460938 C 176.144531 347.460938 175.910156 347.285156 175.851562 347.023438 C 175.773438 346.714844 175.964844 346.410156 176.269531 346.335938 C 177.734375 345.984375 179.21875 345.609375 180.6875 345.21875 C 180.988281 345.136719 181.304688 345.320312 181.382812 345.621094 C 181.46875 345.925781 181.285156 346.242188 180.980469 346.320312 C 179.503906 346.714844 178.011719 347.09375 176.539062 347.445312 C 176.492188 347.457031 176.449219 347.460938 176.402344 347.460938 Z M 117.734375 348.054688 C 117.683594 348.054688 117.632812 348.046875 117.578125 348.03125 C 116.117188 347.617188 114.640625 347.160156 113.191406 346.679688 C 112.894531 346.578125 112.730469 346.253906 112.832031 345.957031 C 112.929688 345.65625 113.253906 345.496094 113.554688 345.59375 C 114.984375 346.070312 116.445312 346.519531 117.890625 346.933594 C 118.195312 347.019531 118.371094 347.335938 118.285156 347.636719 C 118.210938 347.886719 117.984375 348.054688 117.734375 348.054688 Z M 167.46875 349.347656 C 167.195312 349.347656 166.957031 349.152344 166.90625 348.878906 C 166.847656 348.570312 167.054688 348.269531 167.363281 348.214844 C 168.84375 347.945312 170.347656 347.648438 171.832031 347.335938 C 172.136719 347.269531 172.441406 347.46875 172.507812 347.773438 C 172.574219 348.085938 172.375 348.386719 172.066406 348.453125 C 170.574219 348.769531 169.0625 349.066406 167.570312 349.335938 C 167.535156 349.34375 167.5 349.347656 167.46875 349.347656 Z M 126.617188 350.140625 C 126.582031 350.140625 126.546875 350.136719 126.511719 350.132812 C 125.019531 349.851562 123.507812 349.53125 122.023438 349.183594 C 121.714844 349.113281 121.523438 348.804688 121.597656 348.496094 C 121.667969 348.191406 121.976562 348 122.28125 348.074219 C 123.75 348.417969 125.246094 348.730469 126.722656 349.007812 C 127.03125 349.066406 127.238281 349.363281 127.179688 349.675781 C 127.128906 349.949219 126.886719 350.140625 126.617188 350.140625 Z M 158.4375 350.734375 C 158.152344 350.734375 157.90625 350.519531 157.871094 350.230469 C 157.832031 349.917969 158.054688 349.632812 158.371094 349.59375 C 159.859375 349.410156 161.375 349.199219 162.875 348.96875 C 163.1875 348.917969 163.476562 349.132812 163.527344 349.445312 C 163.574219 349.757812 163.363281 350.050781 163.050781 350.097656 C 161.539062 350.328125 160.011719 350.542969 158.511719 350.726562 C 158.484375 350.730469 158.460938 350.734375 158.4375 350.734375 Z M 135.660156 351.386719 C 135.640625 351.386719 135.625 351.386719 135.609375 351.386719 C 134.09375 351.25 132.558594 351.074219 131.046875 350.867188 C 130.730469 350.824219 130.515625 350.535156 130.558594 350.222656 C 130.601562 349.910156 130.886719 349.691406 131.199219 349.734375 C 132.695312 349.941406 134.214844 350.113281 135.707031 350.25 C 136.023438 350.277344 136.253906 350.554688 136.226562 350.867188 C 136.199219 351.164062 135.949219 351.386719 135.660156 351.386719 Z M 149.34375 351.589844 C 149.042969 351.589844 148.792969 351.355469 148.773438 351.054688 C 148.753906 350.738281 148.996094 350.46875 149.308594 350.449219 C 149.574219 350.433594 149.835938 350.414062 150.097656 350.398438 C 151.34375 350.3125 152.605469 350.207031 153.84375 350.089844 C 154.160156 350.058594 154.4375 350.289062 154.46875 350.601562 C 154.496094 350.917969 154.265625 351.195312 153.953125 351.226562 C 152.703125 351.347656 151.433594 351.449219 150.175781 351.539062 C 149.910156 351.554688 149.644531 351.574219 149.378906 351.589844 C 149.367188 351.589844 149.355469 351.589844 149.34375 351.589844 Z M 143.878906 351.757812 C 142.660156 351.757812 141.417969 351.734375 140.191406 351.683594 C 139.875 351.671875 139.628906 351.40625 139.644531 351.089844 C 139.65625 350.773438 139.910156 350.535156 140.238281 350.542969 C 141.75 350.601562 143.269531 350.625 144.773438 350.609375 C 145.089844 350.609375 145.347656 350.859375 145.351562 351.175781 C 145.351562 351.492188 145.101562 351.75 144.785156 351.753906 C 144.484375 351.753906 144.183594 351.757812 143.878906 351.757812 " fill-opacity="1" fill-rule="nonzero"/><path fill="#f9dc5c" d="M 185.832031 153.320312 C 185.824219 153.320312 185.816406 153.320312 185.808594 153.320312 C 184.324219 153.261719 182.78125 153.242188 181.273438 153.265625 C 180.964844 153.273438 180.699219 153.019531 180.695312 152.703125 C 180.691406 152.386719 180.941406 152.128906 181.257812 152.125 C 182.785156 152.101562 184.351562 152.121094 185.855469 152.179688 C 186.171875 152.191406 186.414062 152.460938 186.402344 152.773438 C 186.390625 153.082031 186.136719 153.320312 185.832031 153.320312 Z M 172.144531 153.84375 C 171.859375 153.84375 171.609375 153.625 171.578125 153.335938 C 171.542969 153.019531 171.769531 152.738281 172.082031 152.703125 C 173.617188 152.535156 175.160156 152.402344 176.664062 152.304688 C 176.976562 152.285156 177.246094 152.523438 177.269531 152.839844 C 177.289062 153.152344 177.050781 153.425781 176.734375 153.445312 C 175.25 153.539062 173.726562 153.671875 172.207031 153.839844 C 172.1875 153.839844 172.164062 153.84375 172.144531 153.84375 Z M 194.917969 154.242188 C 194.886719 154.242188 194.855469 154.238281 194.820312 154.234375 C 193.367188 153.988281 191.859375 153.789062 190.332031 153.636719 C 190.019531 153.605469 189.789062 153.324219 189.820312 153.011719 C 189.851562 152.695312 190.132812 152.46875 190.445312 152.5 C 191.996094 152.652344 193.53125 152.859375 195.011719 153.109375 C 195.324219 153.160156 195.53125 153.453125 195.480469 153.765625 C 195.433594 154.042969 195.191406 154.242188 194.917969 154.242188 Z M 163.109375 155.230469 C 162.84375 155.230469 162.605469 155.042969 162.550781 154.769531 C 162.492188 154.460938 162.691406 154.160156 163 154.097656 C 164.496094 153.804688 166.019531 153.539062 167.527344 153.304688 C 167.835938 153.257812 168.132812 153.472656 168.179688 153.785156 C 168.226562 154.09375 168.011719 154.386719 167.699219 154.433594 C 166.210938 154.664062 164.703125 154.929688 163.222656 155.21875 C 163.183594 155.226562 163.148438 155.230469 163.109375 155.230469 Z M 203.351562 156.296875 C 203.292969 156.296875 203.230469 156.289062 203.171875 156.269531 C 201.90625 155.855469 200.589844 155.480469 199.253906 155.148438 C 198.945312 155.074219 198.761719 154.765625 198.835938 154.457031 C 198.910156 154.152344 199.21875 153.964844 199.527344 154.039062 C 200.890625 154.375 202.238281 154.761719 203.527344 155.183594 C 203.828125 155.28125 203.992188 155.605469 203.894531 155.90625 C 203.8125 156.148438 203.589844 156.296875 203.351562 156.296875 Z M 154.230469 157.414062 C 153.988281 157.414062 153.765625 157.261719 153.6875 157.019531 C 153.589844 156.71875 153.753906 156.398438 154.054688 156.300781 C 154.121094 156.28125 155.734375 155.757812 158.511719 155.085938 C 158.816406 155.011719 159.128906 155.199219 159.199219 155.503906 C 159.273438 155.8125 159.085938 156.121094 158.78125 156.195312 C 156.046875 156.859375 154.421875 157.382812 154.40625 157.386719 C 154.347656 157.40625 154.289062 157.414062 154.230469 157.414062 " fill-opacity="1" fill-rule="nonzero"/><path fill="#f9dc5c" d="M 193.859375 126.742188 C 193.761719 126.742188 193.664062 126.714844 193.574219 126.664062 C 192.234375 125.898438 190.882812 125.214844 189.550781 124.640625 C 189.261719 124.511719 189.128906 124.175781 189.253906 123.890625 C 189.378906 123.597656 189.71875 123.464844 190.007812 123.589844 C 191.375 124.183594 192.769531 124.886719 194.140625 125.675781 C 194.417969 125.832031 194.511719 126.179688 194.351562 126.453125 C 194.25 126.636719 194.054688 126.742188 193.859375 126.742188 Z M 201.320312 132.003906 C 201.1875 132.003906 201.058594 131.960938 200.953125 131.871094 C 199.78125 130.886719 198.574219 129.953125 197.375 129.101562 C 197.117188 128.921875 197.054688 128.5625 197.238281 128.308594 C 197.421875 128.050781 197.777344 127.988281 198.035156 128.167969 C 199.261719 129.039062 200.492188 129.992188 201.6875 130.996094 C 201.929688 131.199219 201.957031 131.558594 201.753906 131.800781 C 201.640625 131.9375 201.480469 132.003906 201.320312 132.003906 Z M 207.816406 138.4375 C 207.652344 138.4375 207.484375 138.363281 207.371094 138.222656 C 207.363281 138.210938 206.246094 136.835938 204.300781 134.921875 C 204.074219 134.699219 204.070312 134.335938 204.292969 134.113281 C 204.511719 133.886719 204.875 133.886719 205.101562 134.105469 C 207.097656 136.070312 208.214844 137.449219 208.261719 137.503906 C 208.460938 137.75 208.421875 138.109375 208.175781 138.308594 C 208.070312 138.394531 207.941406 138.4375 207.816406 138.4375 " fill-opacity="1" fill-rule="nonzero"/><path fill="#ed254e" d="M 324.972656 313.40625 C 324.972656 318.710938 316.914062 331.105469 314.328125 334.949219 C 313.949219 335.511719 313.121094 335.511719 312.742188 334.949219 C 310.15625 331.105469 302.097656 318.710938 302.097656 313.40625 C 302.097656 307.09375 307.21875 301.972656 313.535156 301.972656 C 319.851562 301.972656 324.972656 307.09375 324.972656 313.40625 " fill-opacity="1" fill-rule="nonzero"/><path fill="#ffffff" d="M 317.632812 313.40625 C 317.632812 315.671875 315.796875 317.507812 313.53125 317.507812 C 311.269531 317.507812 309.433594 315.671875 309.433594 313.40625 C 309.433594 311.144531 311.269531 309.308594 313.53125 309.308594 C 315.796875 309.308594 317.632812 311.144531 317.632812 313.40625 " fill-opacity="1" fill-rule="nonzero"/></svg>