<svg xmlns="http://www.w3.org/2000/svg" xmlns:xlink="http://www.w3.org/1999/xlink" width="500" zoomAndPan="magnify" viewBox="0 0 375 374.999991" height="500" preserveAspectRatio="xMidYMid meet" version="1.0"><defs><clipPath id="f5fb51cbb9"><path d="M 10.765625 34.589844 L 364.015625 34.589844 L 364.015625 340.589844 L 10.765625 340.589844 Z M 10.765625 34.589844 " clip-rule="nonzero"/></clipPath><clipPath id="ef52e212e9"><path d="M 21.527344 44.867188 L 353.472656 44.867188 L 353.472656 330.132812 L 21.527344 330.132812 Z M 21.527344 44.867188 " clip-rule="nonzero"/></clipPath><clipPath id="7ad32a3aff"><path d="M 353.472656 187.5 L 270.484375 330.132812 L 104.515625 330.132812 L 21.527344 187.5 L 104.515625 44.867188 L 270.484375 44.867188 Z M 353.472656 187.5 " clip-rule="nonzero"/></clipPath><clipPath id="2aa7571e33"><path d="M 35.515625 56.886719 L 339.484375 56.886719 L 339.484375 318.113281 L 35.515625 318.113281 Z M 35.515625 56.886719 " clip-rule="nonzero"/></clipPath><clipPath id="f814774efe"><path d="M 339.484375 187.5 L 263.492188 318.113281 L 111.507812 318.113281 L 35.515625 187.5 L 111.507812 56.886719 L 263.492188 56.886719 Z M 339.484375 187.5 " clip-rule="nonzero"/></clipPath><clipPath id="d78ed3d5c3"><path d="M 105.476562 90.285156 L 269.726562 90.285156 L 269.726562 284.535156 L 105.476562 284.535156 Z M 105.476562 90.285156 " clip-rule="nonzero"/></clipPath></defs><g clip-path="url(#f5fb51cbb9)"><path fill="#ed254e" d="M 273.644531 336.675781 L 359.777344 187.496094 L 273.644531 38.3125 L 101.382812 38.3125 L 15.253906 187.496094 L 101.382812 336.675781 Z M 364.253906 187.496094 L 275.886719 340.554688 L 99.144531 340.554688 L 10.777344 187.496094 L 99.144531 34.433594 L 275.886719 34.433594 L 364.253906 187.496094 " fill-opacity="1" fill-rule="nonzero"/></g><g clip-path="url(#ef52e212e9)"><g clip-path="url(#7ad32a3aff)"><path fill="#ed254e" d="M 21.527344 44.867188 L 353.472656 44.867188 L 353.472656 330.132812 L 21.527344 330.132812 Z M 21.527344 44.867188 " fill-opacity="1" fill-rule="nonzero"/></g></g><g clip-path="url(#2aa7571e33)"><g clip-path="url(#f814774efe)"><path fill="#011936" d="M 35.515625 56.886719 L 339.484375 56.886719 L 339.484375 318.113281 L 35.515625 318.113281 Z M 35.515625 56.886719 " fill-opacity="1" fill-rule="nonzero"/></g></g><g clip-path="url(#d78ed3d5c3)"><path fill="#f9dc5c" d="M 105.476562 284.589844 L 105.476562 162.554688 L 188.1875 162.554688 L 221.402344 212.355469 L 155.285156 212.355469 L 155.285156 234.785156 L 236.304688 234.785156 L 269.515625 284.589844 Z M 156.820312 140.1875 L 123.671875 90.386719 L 236.355469 90.386719 L 269.503906 140.1875 Z M 156.820312 140.1875 " fill-opacity="1" fill-rule="nonzero"/></g></svg>